# 3ds Max Wavefront OBJ Exporter v0.97b - (c)2007 guruware
# 创建的文件:25.02.2017 22:31:38

mtllib x.mtl

#
# object Line096
#

v  44.2027 33.4098 -200.9209
v  44.2027 33.4098 35.0232
v  44.2027 0.0000 35.0232
v  44.2027 0.0000 -200.9209
v  -44.2027 33.4098 -201.4916
v  -44.2027 0.0000 -201.4916
v  -44.2027 33.4098 35.0232
v  -44.2027 0.0000 35.0232
v  -83.2373 33.4098 35.0232
v  -83.2373 0.0000 35.0232
v  -0.0000 33.4098 201.4930
v  -0.0000 0.0000 201.4930
v  83.2373 33.4098 35.0232
v  83.2373 0.0000 35.0232
# 14 vertices

vn 1.0000 0.0000 0.0000
vn 0.0065 0.0000 -1.0000
vn -1.0000 0.0000 -0.0000
vn 0.0000 0.0000 -1.0000
vn -0.8944 0.0000 0.4472
vn 0.8944 0.0000 0.4472
vn 0.0000 -1.0000 -0.0000
vn 0.0000 1.0000 -0.0000
# 8 vertex normals

g Line096
usemtl ________
s 1
f 1//1 2//1 3//1 4//1 
s 4
f 5//2 1//2 4//2 6//2 
s 2
f 7//3 5//3 6//3 8//3 
s 4
f 9//4 7//4 8//4 10//4 
s 2
f 11//5 9//5 10//5 12//5 
s 4
f 13//6 11//6 12//6 14//6 
s 2
f 2//4 13//4 14//4 3//4 
s 16
f 4//7 3//7 8//7 6//7 
f 1//8 5//8 7//8 2//8 
f 3//7 14//7 12//7 8//7 
f 12//7 10//7 8//7 
f 7//8 9//8 11//8 2//8 
f 11//8 13//8 2//8 
# 11 polygons - 2 triangles

