# 3ds Max Wavefront OBJ Exporter v0.97b - (c)2007 guruware
# 创建的文件:26.02.2017 14:00:08

mtllib fwqjq.mtl

#
# object Box115
#

v  -218.2520 0.0000 583.5330
v  218.2539 0.0000 583.5330
v  218.2539 1000.0000 583.5330
v  -218.2519 1000.0000 583.5330
v  198.2539 1000.0000 563.5331
v  -198.2513 1000.0000 563.5331
v  198.2539 1000.0001 -563.5341
v  -198.2500 1000.0001 -563.5341
v  -218.2520 0.0001 -583.5332
v  -218.2520 1000.0000 -583.5332
v  218.2539 1000.0000 -583.5332
v  218.2539 0.0001 -583.5332
# 12 vertices

vn 0.0000 -0.0000 1.0000
vn 0.0000 1.0000 0.0000
vn -0.0000 1.0000 0.0000
vn -0.7071 0.0000 -0.7071
vn 0.7071 0.0000 -0.7071
vn -1.0000 0.0000 0.0000
vn 1.0000 0.0000 0.0000
vn 0.0000 1.0000 -0.0000
vn 0.0000 -1.0000 -0.0000
# 9 vertex normals

vt 0.4059 0.8217 0.0000
vt 0.4059 0.9980 0.0000
vt 0.0020 0.9980 0.0000
vt 0.0020 0.8217 0.0000
vt 0.0101 0.2377 0.0000
vt 0.0101 0.3978 0.0000
vt 0.0020 0.4059 0.0000
vt 0.0020 0.2296 0.0000
vt 0.0201 0.6363 0.0000
vt 0.0201 0.4761 0.0000
vt 0.4754 0.4761 0.0000
vt 0.4754 0.6363 0.0000
vt 0.0714 0.0439 0.0000
vt 0.4754 0.0439 0.0000
vt 0.4754 0.2203 0.0000
vt 0.0714 0.2203 0.0000
vt 0.4793 0.8157 0.0000
vt 0.4793 0.4118 0.0000
vt 0.9507 0.4118 0.0000
vt 0.9507 0.8157 0.0000
vt 0.4734 0.4059 0.0000
vt 0.4653 0.3978 0.0000
vt 0.4793 0.0020 0.0000
vt 0.9507 0.0020 0.0000
vt 0.9507 0.4059 0.0000
vt 0.4793 0.4059 0.0000
vt 0.4734 0.2296 0.0000
vt 0.4653 0.2377 0.0000
vt 0.4734 0.6394 0.0000
vt 0.4734 0.8157 0.0000
vt 0.0020 0.8157 0.0000
vt 0.0020 0.6394 0.0000
# 32 texture coords

g Box115
usemtl Material__85
s 4
f 1/1/1 2/2/1 3/3/1 4/4/1 
s 32
f 5/5/2 6/6/3 4/7/3 3/8/2 
s 4
f 6/9/2 5/10/2 7/11/2 8/12/2 
s 2
f 9/13/4 10/14/4 11/15/5 12/16/5 
f 1/17/6 4/18/6 10/19/4 9/20/4 
s 32
f 10/21/3 4/7/3 6/6/3 8/22/3 
s 2
f 2/23/7 12/24/5 11/25/5 3/26/7 
s 32
f 11/27/2 7/28/2 5/5/2 3/8/2 
s off
f 11/27/8 10/21/8 8/22/8 7/28/8 
f 9/29/9 12/30/9 2/31/9 1/32/9 
# 10 polygons

