# 3ds Max Wavefront OBJ Exporter v0.97b - (c)2007 guruware
# File Created: 20.03.2017 18:02:04

mtllib windfloor.mtl

#
# object Plane233132
#

v  -3.2014 0.0000 -220.3490
v  -3.2014 0.0000 -440.6980
v  -254.4406 0.0000 -220.3490
v  -254.4406 0.0000 -440.6980
v  -505.6797 0.0000 -220.3489
v  -505.6797 0.0000 -440.6979
v  -756.9188 0.0000 -220.3489
v  -756.9189 0.0000 -440.6979
v  -1008.1580 0.0000 -220.3489
v  -1008.1580 0.0000 -440.6979
v  -3.2014 0.0000 0.0000
v  -254.4406 0.0000 0.0000
v  -505.6797 0.0000 0.0000
v  -756.9188 0.0000 0.0001
v  -1008.1580 0.0000 0.0001
v  -3.2014 0.0000 220.3490
v  -254.4405 0.0000 220.3490
v  -505.6797 0.0000 220.3490
v  -756.9188 0.0000 220.3490
v  -1008.1580 0.0000 220.3491
v  -3.2014 0.0000 440.6980
v  -254.4405 0.0000 440.6980
v  -505.6797 0.0000 440.6980
v  -756.9188 0.0000 440.6980
v  -1008.1580 0.0000 440.6980
# 25 vertices

vn 0.0000 1.0000 -0.0000
# 1 vertex normals

vt 0.0000 0.2500 0.0000
vt 0.0000 0.0000 0.0000
vt 0.2500 0.2500 0.0000
vt 0.2500 0.0000 0.0000
vt 0.5000 0.2500 0.0000
vt 0.5000 0.0000 0.0000
vt 0.7500 0.2500 0.0000
vt 0.7500 0.0000 0.0000
vt 1.0000 0.2500 0.0000
vt 1.0000 0.0000 0.0000
vt 0.0000 0.5000 0.0000
vt 0.2500 0.5000 0.0000
vt 0.5000 0.5000 0.0000
vt 0.7500 0.5000 0.0000
vt 1.0000 0.5000 0.0000
vt 0.0000 0.7500 0.0000
vt 0.2500 0.7500 0.0000
vt 0.5000 0.7500 0.0000
vt 0.7500 0.7500 0.0000
vt 1.0000 0.7500 0.0000
vt 0.0000 1.0000 0.0000
vt 0.2500 1.0000 0.0000
vt 0.5000 1.0000 0.0000
vt 0.7500 1.0000 0.0000
vt 1.0000 1.0000 0.0000
# 25 texture coords

g Plane233132
usemtl YUASA_dianchi
s 1
f 1/1/1 2/2/1 3/3/1 
f 4/4/1 3/3/1 2/2/1 
f 3/3/1 4/4/1 5/5/1 
f 6/6/1 5/5/1 4/4/1 
f 5/5/1 6/6/1 7/7/1 
f 8/8/1 7/7/1 6/6/1 
f 7/7/1 8/8/1 9/9/1 
f 10/10/1 9/9/1 8/8/1 
f 11/11/1 1/1/1 12/12/1 
f 3/3/1 12/12/1 1/1/1 
f 12/12/1 3/3/1 13/13/1 
f 5/5/1 13/13/1 3/3/1 
f 13/13/1 5/5/1 14/14/1 
f 7/7/1 14/14/1 5/5/1 
f 14/14/1 7/7/1 15/15/1 
f 9/9/1 15/15/1 7/7/1 
f 16/16/1 11/11/1 17/17/1 
f 12/12/1 17/17/1 11/11/1 
f 17/17/1 12/12/1 18/18/1 
f 13/13/1 18/18/1 12/12/1 
f 18/18/1 13/13/1 19/19/1 
f 14/14/1 19/19/1 13/13/1 
f 19/19/1 14/14/1 20/20/1 
f 15/15/1 20/20/1 14/14/1 
f 21/21/1 16/16/1 22/22/1 
f 17/17/1 22/22/1 16/16/1 
f 22/22/1 17/17/1 23/23/1 
f 18/18/1 23/23/1 17/17/1 
f 23/23/1 18/18/1 24/24/1 
f 19/19/1 24/24/1 18/18/1 
f 24/24/1 19/19/1 25/25/1 
f 20/20/1 25/25/1 19/19/1 
# 32 faces

#
# object Plane233133
#

v  2019.5173 0.0000 -220.3492
v  2019.5173 0.0000 -440.6981
v  1768.2782 0.0000 -220.3491
v  1768.2782 0.0000 -440.6981
v  1517.0391 0.0000 -220.3491
v  1517.0391 0.0000 -440.6981
v  1265.7999 0.0000 -220.3491
v  1265.7999 0.0000 -440.6981
v  1014.5608 0.0000 -220.3491
v  1014.5608 0.0000 -440.6981
v  2019.5173 0.0000 -0.0002
v  1768.2782 0.0000 -0.0002
v  1517.0391 0.0000 -0.0001
v  1265.7999 0.0000 -0.0001
v  1014.5608 0.0000 -0.0001
v  2019.5173 0.0000 220.3488
v  1768.2782 0.0000 220.3488
v  1517.0391 0.0000 220.3488
v  1265.7999 0.0000 220.3489
v  1014.5608 0.0000 220.3489
v  2019.5173 0.0000 440.6978
v  1768.2782 0.0000 440.6978
v  1517.0391 0.0000 440.6978
v  1265.7999 0.0000 440.6979
v  1014.5608 0.0000 440.6979
# 25 vertices

vn 0.0000 1.0000 -0.0000
# 1 vertex normals

vt 0.0000 0.2500 0.0000
vt 0.0000 0.0000 0.0000
vt 0.2500 0.2500 0.0000
vt 0.2500 0.0000 0.0000
vt 0.5000 0.2500 0.0000
vt 0.5000 0.0000 0.0000
vt 0.7500 0.2500 0.0000
vt 0.7500 0.0000 0.0000
vt 1.0000 0.2500 0.0000
vt 1.0000 0.0000 0.0000
vt 0.0000 0.5000 0.0000
vt 0.2500 0.5000 0.0000
vt 0.5000 0.5000 0.0000
vt 0.7500 0.5000 0.0000
vt 1.0000 0.5000 0.0000
vt 0.0000 0.7500 0.0000
vt 0.2500 0.7500 0.0000
vt 0.5000 0.7500 0.0000
vt 0.7500 0.7500 0.0000
vt 1.0000 0.7500 0.0000
vt 0.0000 1.0000 0.0000
vt 0.2500 1.0000 0.0000
vt 0.5000 1.0000 0.0000
vt 0.7500 1.0000 0.0000
vt 1.0000 1.0000 0.0000
# 25 texture coords

g Plane233133
usemtl YUASA_dianchi
s 1
f 26/26/2 27/27/2 28/28/2 
f 29/29/2 28/28/2 27/27/2 
f 28/28/2 29/29/2 30/30/2 
f 31/31/2 30/30/2 29/29/2 
f 30/30/2 31/31/2 32/32/2 
f 33/33/2 32/32/2 31/31/2 
f 32/32/2 33/33/2 34/34/2 
f 35/35/2 34/34/2 33/33/2 
f 36/36/2 26/26/2 37/37/2 
f 28/28/2 37/37/2 26/26/2 
f 37/37/2 28/28/2 38/38/2 
f 30/30/2 38/38/2 28/28/2 
f 38/38/2 30/30/2 39/39/2 
f 32/32/2 39/39/2 30/30/2 
f 39/39/2 32/32/2 40/40/2 
f 34/34/2 40/40/2 32/32/2 
f 41/41/2 36/36/2 42/42/2 
f 37/37/2 42/42/2 36/36/2 
f 42/42/2 37/37/2 43/43/2 
f 38/38/2 43/43/2 37/37/2 
f 43/43/2 38/38/2 44/44/2 
f 39/39/2 44/44/2 38/38/2 
f 44/44/2 39/39/2 45/45/2 
f 40/40/2 45/45/2 39/39/2 
f 46/46/2 41/41/2 47/47/2 
f 42/42/2 47/47/2 41/41/2 
f 47/47/2 42/42/2 48/48/2 
f 43/43/2 48/48/2 42/42/2 
f 48/48/2 43/43/2 49/49/2 
f 44/44/2 49/49/2 43/43/2 
f 49/49/2 44/44/2 50/50/2 
f 45/45/2 50/50/2 44/44/2 
# 32 faces

#
# object Plane2531313
#

v  1008.1580 0.0000 -220.3491
v  1008.1580 0.0000 -440.6980
v  756.9188 0.0000 -220.3490
v  756.9188 0.0000 -440.6980
v  505.6797 0.0000 -220.3490
v  505.6797 0.0000 -440.6980
v  254.4405 0.0000 -220.3490
v  254.4405 0.0000 -440.6980
v  3.2014 0.0000 -220.3490
v  3.2014 0.0000 -440.6980
v  1008.1580 0.0000 -0.0001
v  756.9188 0.0000 -0.0001
v  505.6797 0.0000 -0.0000
v  254.4406 0.0000 -0.0000
v  3.2014 0.0000 -0.0000
v  1008.1580 0.0000 220.3489
v  756.9188 0.0000 220.3489
v  505.6797 0.0000 220.3489
v  254.4406 0.0000 220.3490
v  3.2014 0.0000 220.3490
v  1008.1580 0.0000 440.6979
v  756.9189 0.0000 440.6979
v  505.6797 0.0000 440.6979
v  254.4406 0.0000 440.6980
v  3.2014 0.0000 440.6980
# 25 vertices

vn 0.0000 1.0000 -0.0000
# 1 vertex normals

vt 0.0000 0.2500 0.0000
vt 0.0000 0.0000 0.0000
vt 0.2500 0.2500 0.0000
vt 0.2500 0.0000 0.0000
vt 0.5000 0.2500 0.0000
vt 0.5000 0.0000 0.0000
vt 0.7500 0.2500 0.0000
vt 0.7500 0.0000 0.0000
vt 1.0000 0.2500 0.0000
vt 1.0000 0.0000 0.0000
vt 0.0000 0.5000 0.0000
vt 0.2500 0.5000 0.0000
vt 0.5000 0.5000 0.0000
vt 0.7500 0.5000 0.0000
vt 1.0000 0.5000 0.0000
vt 0.0000 0.7500 0.0000
vt 0.2500 0.7500 0.0000
vt 0.5000 0.7500 0.0000
vt 0.7500 0.7500 0.0000
vt 1.0000 0.7500 0.0000
vt 0.0000 1.0000 0.0000
vt 0.2500 1.0000 0.0000
vt 0.5000 1.0000 0.0000
vt 0.7500 1.0000 0.0000
vt 1.0000 1.0000 0.0000
# 25 texture coords

g Plane2531313
usemtl YUASA_dianchi
s 1
f 51/51/3 52/52/3 53/53/3 
f 54/54/3 53/53/3 52/52/3 
f 53/53/3 54/54/3 55/55/3 
f 56/56/3 55/55/3 54/54/3 
f 55/55/3 56/56/3 57/57/3 
f 58/58/3 57/57/3 56/56/3 
f 57/57/3 58/58/3 59/59/3 
f 60/60/3 59/59/3 58/58/3 
f 61/61/3 51/51/3 62/62/3 
f 53/53/3 62/62/3 51/51/3 
f 62/62/3 53/53/3 63/63/3 
f 55/55/3 63/63/3 53/53/3 
f 63/63/3 55/55/3 64/64/3 
f 57/57/3 64/64/3 55/55/3 
f 64/64/3 57/57/3 65/65/3 
f 59/59/3 65/65/3 57/57/3 
f 66/66/3 61/61/3 67/67/3 
f 62/62/3 67/67/3 61/61/3 
f 67/67/3 62/62/3 68/68/3 
f 63/63/3 68/68/3 62/62/3 
f 68/68/3 63/63/3 69/69/3 
f 64/64/3 69/69/3 63/63/3 
f 69/69/3 64/64/3 70/70/3 
f 65/65/3 70/70/3 64/64/3 
f 71/71/3 66/66/3 72/72/3 
f 67/67/3 72/72/3 66/66/3 
f 72/72/3 67/67/3 73/73/3 
f 68/68/3 73/73/3 67/67/3 
f 73/73/3 68/68/3 74/74/3 
f 69/69/3 74/74/3 68/68/3 
f 74/74/3 69/69/3 75/75/3 
f 70/70/3 75/75/3 69/69/3 
# 32 faces

#
# object Plane2531314
#

v  -1014.5608 0.0000 -220.3489
v  -1014.5608 0.0000 -440.6979
v  -1265.7999 0.0000 -220.3489
v  -1265.7999 0.0000 -440.6979
v  -1517.0391 0.0000 -220.3488
v  -1517.0391 0.0000 -440.6978
v  -1768.2782 0.0000 -220.3488
v  -1768.2782 0.0000 -440.6978
v  -2019.5173 0.0000 -220.3488
v  -2019.5173 0.0000 -440.6978
v  -1014.5608 0.0000 0.0001
v  -1265.7999 0.0000 0.0001
v  -1517.0391 0.0000 0.0001
v  -1768.2782 0.0000 0.0002
v  -2019.5173 0.0000 0.0002
v  -1014.5608 0.0000 220.3491
v  -1265.7999 0.0000 220.3491
v  -1517.0391 0.0000 220.3491
v  -1768.2782 0.0000 220.3491
v  -2019.5173 0.0000 220.3492
v  -1014.5608 0.0000 440.6981
v  -1265.7999 0.0000 440.6981
v  -1517.0391 0.0000 440.6981
v  -1768.2782 0.0000 440.6981
v  -2019.5173 0.0000 440.6981
# 25 vertices

vn 0.0000 1.0000 -0.0000
# 1 vertex normals

vt 0.0000 0.2500 0.0000
vt 0.0000 0.0000 0.0000
vt 0.2500 0.2500 0.0000
vt 0.2500 0.0000 0.0000
vt 0.5000 0.2500 0.0000
vt 0.5000 0.0000 0.0000
vt 0.7500 0.2500 0.0000
vt 0.7500 0.0000 0.0000
vt 1.0000 0.2500 0.0000
vt 1.0000 0.0000 0.0000
vt 0.0000 0.5000 0.0000
vt 0.2500 0.5000 0.0000
vt 0.5000 0.5000 0.0000
vt 0.7500 0.5000 0.0000
vt 1.0000 0.5000 0.0000
vt 0.0000 0.7500 0.0000
vt 0.2500 0.7500 0.0000
vt 0.5000 0.7500 0.0000
vt 0.7500 0.7500 0.0000
vt 1.0000 0.7500 0.0000
vt 0.0000 1.0000 0.0000
vt 0.2500 1.0000 0.0000
vt 0.5000 1.0000 0.0000
vt 0.7500 1.0000 0.0000
vt 1.0000 1.0000 0.0000
# 25 texture coords

g Plane2531314
usemtl YUASA_dianchi
s 1
f 76/76/4 77/77/4 78/78/4 
f 79/79/4 78/78/4 77/77/4 
f 78/78/4 79/79/4 80/80/4 
f 81/81/4 80/80/4 79/79/4 
f 80/80/4 81/81/4 82/82/4 
f 83/83/4 82/82/4 81/81/4 
f 82/82/4 83/83/4 84/84/4 
f 85/85/4 84/84/4 83/83/4 
f 86/86/4 76/76/4 87/87/4 
f 78/78/4 87/87/4 76/76/4 
f 87/87/4 78/78/4 88/88/4 
f 80/80/4 88/88/4 78/78/4 
f 88/88/4 80/80/4 89/89/4 
f 82/82/4 89/89/4 80/80/4 
f 89/89/4 82/82/4 90/90/4 
f 84/84/4 90/90/4 82/82/4 
f 91/91/4 86/86/4 92/92/4 
f 87/87/4 92/92/4 86/86/4 
f 92/92/4 87/87/4 93/93/4 
f 88/88/4 93/93/4 87/87/4 
f 93/93/4 88/88/4 94/94/4 
f 89/89/4 94/94/4 88/88/4 
f 94/94/4 89/89/4 95/95/4 
f 90/90/4 95/95/4 89/89/4 
f 96/96/4 91/91/4 97/97/4 
f 92/92/4 97/97/4 91/91/4 
f 97/97/4 92/92/4 98/98/4 
f 93/93/4 98/98/4 92/92/4 
f 98/98/4 93/93/4 99/99/4 
f 94/94/4 99/99/4 93/93/4 
f 99/99/4 94/94/4 100/100/4 
f 95/95/4 100/100/4 94/94/4 
# 32 faces

