# 3ds Max Wavefront OBJ Exporter v0.97b - (c)2007 guruware
# 创建的文件:25.02.2017 22:31:04

mtllib jj.mtl

#
# object Box001
#

v  -250.0000 0.0000 500.0000
v  -250.0000 0.0000 -500.0000
v  250.0000 0.0000 -500.0000
v  250.0000 0.0000 500.0000
v  -250.0000 2000.0000 500.0000
v  250.0000 2000.0000 500.0000
v  250.0000 2000.0000 -500.0000
v  -250.0000 2000.0000 -500.0000
# 8 vertices

vn 0.0000 -1.0000 -0.0000
vn 0.0000 1.0000 -0.0000
vn 0.0000 0.0000 1.0000
vn 1.0000 0.0000 -0.0000
vn 0.0000 0.0000 -1.0000
vn -1.0000 0.0000 -0.0000
# 6 vertex normals

vt 1.0000 0.0000 0.0000
vt 1.0000 1.0000 0.0000
vt 0.5691 1.0000 0.0000
vt 0.5691 0.0000 0.0000
vt 0.0000 0.0000 0.0000
vt 0.2776 0.0000 0.0000
vt 0.2776 1.0000 0.0000
vt 0.0000 1.0000 0.0000
vt 0.5605 0.0000 0.0000
vt 0.5605 1.0000 0.0000
vt 0.2809 0.0000 0.0000
vt 0.5585 0.0000 0.0000
vt 0.5585 1.0000 0.0000
vt 0.2809 1.0000 0.0000
# 14 texture coords

g Box001
usemtl Material__25
s 2
f 1/1/1 2/2/1 3/3/1 4/4/1 
s 4
f 5/4/2 6/1/2 7/2/2 8/3/2 
s 8
f 1/5/3 4/6/3 6/7/3 5/8/3 
s 16
f 4/1/4 3/9/4 7/10/4 6/2/4 
s 32
f 3/11/5 2/12/5 8/13/5 7/14/5 
s 64
f 2/9/6 1/1/6 5/2/6 8/10/6 
# 6 polygons

