# 3ds Max Wavefront OBJ Exporter v0.97b - (c)2007 guruware
# 创建的文件:26.02.2017 17:33:44

mtllib sjsb.mtl

#
# object Line066
#

v  605.8027 224.1172 286.4820
v  -605.8047 224.1172 286.4822
v  -605.8047 0.0000 286.4822
v  605.8027 0.0000 286.4820
v  605.8027 224.1172 276.8864
v  605.8027 0.0000 276.8864
v  550.0859 224.1172 276.8864
v  550.0859 0.0000 276.8864
v  550.0884 224.1173 228.9082
v  550.0884 0.0000 228.9082
v  -550.0879 224.1172 276.8865
v  -549.9644 224.1173 228.9083
v  -549.9644 0.0000 228.9083
v  -550.0879 0.0000 276.8865
v  -605.8047 224.1172 276.8866
v  -605.8047 0.0000 276.8866
v  -550.0107 0.0000 -286.4822
v  550.0889 0.0000 -286.4822
v  550.0889 224.1173 -286.4822
v  -550.0107 224.1173 -286.4822
# 20 vertices

vn 0.0000 0.0000 1.0000
vn 1.0000 0.0000 -0.0000
vn 0.0000 -0.0000 -1.0000
vn 1.0000 0.0000 0.0001
vn -1.0000 0.0000 -0.0026
vn -0.0000 -0.0000 -1.0000
vn -1.0000 0.0000 -0.0000
vn 0.0000 -1.0000 -0.0000
vn 0.0000 1.0000 -0.0000
vn -0.0000 -1.0000 -0.0000
vn 0.0000 1.0000 0.0000
vn 1.0000 0.0000 0.0000
vn 0.0000 0.0000 -1.0000
vn -1.0000 0.0000 0.0001
# 14 vertex normals

vt 0.7653 0.9980 0.0000
vt 0.0020 0.9980 0.0000
vt 0.0020 0.8568 0.0000
vt 0.7653 0.8568 0.0000
vt 0.1458 0.7414 0.0000
vt 0.1458 0.7354 0.0000
vt 0.2870 0.7354 0.0000
vt 0.2870 0.7414 0.0000
vt 0.0020 0.7791 0.0000
vt 0.0020 0.7440 0.0000
vt 0.1432 0.7440 0.0000
vt 0.1432 0.7791 0.0000
vt 0.2895 0.7791 0.0000
vt 0.2895 0.7489 0.0000
vt 0.4307 0.7489 0.0000
vt 0.4307 0.7791 0.0000
vt 0.0020 0.7414 0.0000
vt 0.0020 0.7112 0.0000
vt 0.1432 0.7112 0.0000
vt 0.1432 0.7414 0.0000
vt 0.1458 0.7791 0.0000
vt 0.1458 0.7440 0.0000
vt 0.2870 0.7440 0.0000
vt 0.2870 0.7791 0.0000
vt 0.0020 0.7086 0.0000
vt 0.0020 0.7026 0.0000
vt 0.1432 0.7026 0.0000
vt 0.1432 0.7086 0.0000
vt 0.7302 0.8490 0.0000
vt 0.7653 0.8490 0.0000
vt 0.7653 0.8551 0.0000
vt 0.0371 0.8490 0.0000
vt 0.0020 0.8490 0.0000
vt 0.0020 0.8551 0.0000
vt 0.0020 0.7869 0.0000
vt 0.0020 0.7808 0.0000
vt 0.7653 0.7808 0.0000
vt 0.0371 0.7869 0.0000
vt 0.7653 0.7869 0.0000
vt 0.7302 0.7869 0.0000
vt 0.0372 0.8188 0.0000
vt 0.7302 0.8188 0.0000
vt 0.7302 0.8171 0.0000
vt 0.0372 0.8171 0.0000
vt 0.3315 0.0020 0.0000
vt 0.6562 0.0020 0.0000
vt 0.6562 0.6951 0.0000
vt 0.3315 0.6951 0.0000
vt 0.3267 0.0020 0.0000
vt 0.3267 0.6951 0.0000
vt 0.0020 0.6951 0.0000
vt 0.0020 0.0020 0.0000
vt 0.9482 0.0409 0.0000
vt 0.9482 0.3656 0.0000
vt 0.8070 0.3656 0.0000
vt 0.8070 0.0409 0.0000
vt 0.8022 0.0020 0.0000
vt 0.8022 0.6951 0.0000
vt 0.6610 0.6951 0.0000
vt 0.6610 0.0020 0.0000
vt 0.9482 0.3704 0.0000
vt 0.9482 0.6951 0.0000
vt 0.8070 0.6951 0.0000
vt 0.8070 0.3704 0.0000
# 64 texture coords

g Line066
usemtl Material__61
s off
f 1/1/1 2/2/1 3/3/1 4/4/1 
f 5/5/2 1/6/2 4/7/2 6/8/2 
f 7/9/3 5/10/3 6/11/3 8/12/3 
f 9/13/4 7/14/4 8/15/4 10/16/4 
f 11/17/5 12/18/5 13/19/5 14/20/5 
f 15/21/6 11/22/6 14/23/6 16/24/6 
f 2/25/7 15/26/7 16/27/7 3/28/7 
f 8/29/8 6/30/8 4/31/8 14/32/8 
f 16/33/8 14/32/8 4/31/8 3/34/8 
f 15/35/9 2/36/9 1/37/9 11/38/9 
f 1/37/9 5/39/9 7/40/9 11/38/9 
f 13/41/10 10/42/10 8/29/10 14/32/10 
f 7/40/11 9/43/11 12/44/11 11/38/11 
f 13/45/8 17/46/8 18/47/8 10/48/8 
f 12/49/11 9/50/11 19/51/11 20/52/11 
f 10/53/12 18/54/12 19/55/12 9/56/12 
f 18/57/13 17/58/13 20/59/13 19/60/13 
f 17/61/14 13/62/14 12/63/14 20/64/14 
# 18 polygons

