# 3ds Max Wavefront OBJ Exporter v0.97b - (c)2007 guruware
# 创建的文件:26.02.2017 17:36:14

mtllib zwqz.mtl

#
# object Box111
#

v  -330.1719 0.0000 244.4287
v  -330.1719 0.0000 -244.4287
v  330.1719 0.0000 -244.4287
v  330.1719 0.0000 244.4287
v  -330.1719 185.3871 244.4287
v  330.1719 185.3871 244.4287
v  330.1719 185.3871 -244.4287
v  -330.1719 185.3871 -244.4287
# 8 vertices

vn 0.0000 -1.0000 -0.0000
vn 0.0000 1.0000 -0.0000
vn 1.0000 0.0000 -0.0000
vn 0.0000 0.0000 -1.0000
vn -1.0000 0.0000 -0.0000
vn 0.0000 0.0000 1.0000
# 6 vertex normals

vt 0.3669 0.3669 0.0000
vt 0.7276 0.3669 0.0000
vt 0.7276 0.8541 0.0000
vt 0.3669 0.8541 0.0000
vt 0.3626 0.3669 0.0000
vt 0.3626 0.8541 0.0000
vt 0.0020 0.8541 0.0000
vt 0.0020 0.3669 0.0000
vt 0.5037 0.0020 0.0000
vt 0.5037 0.3626 0.0000
vt 0.3669 0.3626 0.0000
vt 0.3669 0.0020 0.0000
vt 0.8686 0.3669 0.0000
vt 0.8686 0.8541 0.0000
vt 0.7319 0.8541 0.0000
vt 0.7319 0.3669 0.0000
vt 0.1388 0.0020 0.0000
vt 0.1388 0.3626 0.0000
vt 0.0020 0.3626 0.0000
vt 0.0020 0.0020 0.0000
vt 0.4891 0.8612 0.0000
vt 0.4891 0.9980 0.0000
vt 0.0020 0.9980 0.0000
vt 0.0020 0.8612 0.0000
# 24 texture coords

g Box111
usemtl Material__57
s 2
f 1/1/1 2/2/1 3/3/1 4/4/1 
s 4
f 5/5/2 6/6/2 7/7/2 8/8/2 
s 16
f 4/9/3 3/10/3 7/11/3 6/12/3 
s 32
f 3/13/4 2/14/4 8/15/4 7/16/4 
s 64
f 2/17/5 1/18/5 5/19/5 8/20/5 
s 32
f 4/21/6 6/22/6 5/23/6 1/24/6 
# 6 polygons

