# 3ds Max Wavefront OBJ Exporter v0.97b - (c)2007 guruware
# File Created: 20.03.2017 17:25:49

mtllib airconditioning2.mtl

#
# object ____________
#

v  -950.0000 2100.0000 -432.5000
v  -950.0000 2100.0000 432.5000
v  950.0000 2100.0000 432.5000
v  950.0000 2100.0000 -432.5000
v  -950.0000 0.0000 -432.5000
v  -950.0000 0.0000 432.5000
v  950.0000 0.0000 432.5000
v  950.0000 0.0000 -432.5000
# 8 vertices

vn 0.0000 1.0000 -0.0000
vn -1.0000 0.0000 0.0000
vn 0.0000 0.0000 1.0000
vn 1.0000 0.0000 -0.0000
vn -0.0000 0.0000 -1.0000
# 5 vertex normals

vt 0.5229 0.9709 0.0000
vt 0.5229 0.8250 0.0000
vt 0.9573 0.8250 0.0000
vt 0.9573 0.9709 0.0000
vt 0.0428 0.9709 0.0000
vt 0.0428 0.8250 0.0000
vt 0.0428 0.5045 0.0000
vt 0.5229 0.5045 0.0000
vt 0.0428 0.3586 0.0000
vt 0.5229 0.3586 0.0000
vt 0.0428 0.0382 0.0000
vt 0.5229 0.0382 0.0000
# 12 texture coords

g ____________
usemtl Material__2116395306
s 4
f 1/1/1 2/2/1 3/3/1 
f 3/3/1 4/4/1 1/1/1 
s 8
f 5/5/2 6/6/2 2/2/2 
f 2/2/2 1/1/2 5/5/2 
s 16
f 6/6/3 7/7/3 3/8/3 
f 3/8/3 2/2/3 6/6/3 
s 32
f 7/7/4 8/9/4 4/10/4 
f 4/10/4 3/8/4 7/7/4 
s 64
f 8/9/5 5/11/5 1/12/5 
f 1/12/5 4/10/5 8/9/5 
# 10 faces

