# 3ds Max Wavefront OBJ Exporter v0.97b - (c)2007 guruware
# File Created: 09.05.2017 15:47:59

mtllib kgg.mtl

#
# object kgg
#

v  0.4500 0.0000 -0.4769
v  0.4500 -0.0000 0.4231
v  -0.4500 -0.0000 0.4231
v  -0.4500 0.0000 -0.4769
v  0.4500 2.2000 -0.4769
v  -0.4500 2.2000 -0.4769
v  -0.4500 2.2000 0.4231
v  0.4500 2.2000 0.4231
v  0.4334 1.5164 0.4531
v  -0.4135 1.5164 0.4531
v  -0.4135 0.7537 0.4531
v  0.4334 0.7537 0.4531
v  -0.4135 0.7537 0.4231
v  0.4334 0.7537 0.4231
v  0.4334 1.5164 0.4231
v  -0.4135 1.5164 0.4231
v  0.4334 2.1301 0.4531
v  -0.4135 2.1301 0.4531
v  -0.4135 1.5388 0.4531
v  0.4334 1.5388 0.4531
v  -0.4135 1.5388 0.4231
v  0.4334 1.5388 0.4231
v  0.4334 2.1301 0.4231
v  -0.4135 2.1301 0.4231
v  0.4334 0.6783 0.4531
v  -0.4135 0.6783 0.4531
v  -0.4135 0.0058 0.4531
v  0.4334 0.0058 0.4531
v  -0.4135 0.0058 0.4231
v  0.4334 0.0058 0.4231
v  0.4334 0.6783 0.4231
v  -0.4135 0.6783 0.4231
v  -0.0389 2.0444 0.4769
v  -0.1985 2.0444 0.4769
v  -0.1985 1.8364 0.4769
v  -0.0389 1.8364 0.4769
v  -0.1985 1.8364 0.4531
v  -0.0389 1.8364 0.4531
v  -0.0389 2.0444 0.4531
v  -0.1985 2.0444 0.4531
v  0.2277 2.0444 0.4769
v  0.0632 2.0444 0.4769
v  0.0632 1.8364 0.4769
v  0.2277 1.8364 0.4769
v  0.0632 1.8364 0.4531
v  0.2277 1.8364 0.4531
v  0.2277 2.0444 0.4531
v  0.0632 2.0444 0.4531
# 48 vertices

vn 0.0000 -1.0000 -0.0000
vn 0.0000 1.0000 -0.0000
vn 0.0000 -0.0000 1.0000
vn 1.0000 0.0000 -0.0000
vn 0.0000 0.0000 -1.0000
vn -1.0000 0.0000 -0.0000
# 6 vertex normals

vt 0.9728 0.9007 0.0005
vt 0.9728 0.4665 0.0005
vt 0.5151 0.4665 0.0005
vt 0.5151 0.9007 0.0005
vt 0.9728 0.9007 0.9995
vt 0.5151 0.9007 0.9995
vt 0.5151 0.4665 0.9995
vt 0.9728 0.4665 0.9995
vt 0.5001 1.0000 0.0000
vt 0.0000 1.0000 0.0000
vt 0.0000 0.0000 0.0000
vt 0.5001 0.0000 0.0000
vt 1.0000 1.0000 0.0000
vt 0.5004 1.0000 0.0000
vt 0.5004 0.0000 0.0000
vt 1.0000 0.0000 0.0000
vt 0.4909 0.6893 0.0000
vt 0.0203 0.6893 0.0000
vt 0.0203 0.3426 0.0000
vt 0.4909 0.3426 0.0000
vt 0.0244 0.0786 0.1186
vt 0.4904 0.0786 0.1186
vt 0.4904 0.0950 0.1186
vt 0.0244 0.0950 0.1186
vt 0.0247 0.0785 0.9234
vt 0.4912 0.0785 0.9234
vt 0.4912 0.0950 0.9234
vt 0.0247 0.0950 0.9234
vt 0.0244 0.0786 0.8814
vt 0.4904 0.0786 0.8814
vt 0.4904 0.0950 0.8814
vt 0.0244 0.0950 0.8814
vt 0.4912 0.0950 0.0766
vt 0.0247 0.0950 0.0766
vt 0.0247 0.0785 0.0766
vt 0.4912 0.0785 0.0766
vt 0.4909 0.9694 0.0000
vt 0.0203 0.9694 0.0000
vt 0.0203 0.6998 0.0000
vt 0.4909 0.6998 0.0000
vt 0.4909 0.3106 0.0000
vt 0.0203 0.3106 0.0000
vt 0.0203 0.0016 0.0000
vt 0.4909 0.0016 0.0000
vt 0.2284 0.9304 0.0000
vt 0.1397 0.9304 0.0000
vt 0.1397 0.8355 0.0000
vt 0.2284 0.8355 0.0000
vt 0.2843 0.0820 0.1186
vt 0.3721 0.0820 0.1186
vt 0.3721 0.0950 0.1186
vt 0.2843 0.0950 0.1186
vt 0.0923 0.0820 0.9234
vt 0.2564 0.0820 0.9234
vt 0.2564 0.0950 0.9234
vt 0.0923 0.0950 0.9234
vt 0.1426 0.0820 0.8814
vt 0.2305 0.0820 0.8814
vt 0.2305 0.0950 0.8814
vt 0.1426 0.0950 0.8814
vt 0.2564 0.0916 0.0766
vt 0.0923 0.0916 0.0766
vt 0.0923 0.0785 0.0766
vt 0.2564 0.0785 0.0766
vt 0.3766 0.9304 0.0000
vt 0.2852 0.9304 0.0000
vt 0.2852 0.8355 0.0000
vt 0.3766 0.8355 0.0000
vt 0.1375 0.0820 0.1186
vt 0.2280 0.0820 0.1186
vt 0.2280 0.0950 0.1186
vt 0.1375 0.0950 0.1186
vt 0.2867 0.0820 0.8814
vt 0.3772 0.0820 0.8814
vt 0.3772 0.0950 0.8814
vt 0.2867 0.0950 0.8814
# 76 texture coords

g kgg
usemtl _kggMaterial__37
s off
f 1/1/1 2/2/1 3/3/1 4/4/1 
f 5/5/2 6/6/2 7/7/2 8/8/2 
f 8/9/3 7/10/3 3/11/3 2/12/3 
f 5/13/4 8/14/4 2/15/4 1/16/4 
f 6/13/5 5/14/5 1/15/5 4/16/5 
f 7/13/6 6/14/6 4/15/6 3/16/6 
f 9/17/3 10/18/3 11/19/3 12/20/3 
f 12/21/1 11/22/1 13/23/1 14/24/1 
f 9/25/4 12/26/4 14/27/4 15/28/4 
f 10/29/2 9/30/2 15/31/2 16/32/2 
f 11/33/6 10/34/6 16/35/6 13/36/6 
f 17/37/3 18/38/3 19/39/3 20/40/3 
f 20/21/1 19/22/1 21/23/1 22/24/1 
f 17/25/4 20/26/4 22/27/4 23/28/4 
f 18/29/2 17/30/2 23/31/2 24/32/2 
f 19/33/6 18/34/6 24/35/6 21/36/6 
f 25/41/3 26/42/3 27/43/3 28/44/3 
f 28/21/1 27/22/1 29/23/1 30/24/1 
f 25/25/4 28/26/4 30/27/4 31/28/4 
f 26/29/2 25/30/2 31/31/2 32/32/2 
f 27/33/6 26/34/6 32/35/6 29/36/6 
f 33/45/3 34/46/3 35/47/3 36/48/3 
f 36/49/1 35/50/1 37/51/1 38/52/1 
f 33/53/4 36/54/4 38/55/4 39/56/4 
f 34/57/2 33/58/2 39/59/2 40/60/2 
f 35/61/6 34/62/6 40/63/6 37/64/6 
f 41/65/3 42/66/3 43/67/3 44/68/3 
f 44/69/1 43/70/1 45/71/1 46/72/1 
f 41/53/4 44/54/4 46/55/4 47/56/4 
f 42/73/2 41/74/2 47/75/2 48/76/2 
f 43/61/6 42/62/6 48/63/6 45/64/6 
# 31 polygons

