# 3ds Max Wavefront OBJ Exporter v0.97b - (c)2007 guruware
# 创建的文件:25.02.2017 22:29:05

mtllib fcjnw.mtl

#
# object Cylinder004
#

v  -1618.8438 0.0002 -0.0000
v  -1618.8438 0.9608 -24.4503
v  1618.8438 0.9607 -24.4503
v  1618.8438 0.0001 -0.0000
v  -1618.8438 3.8369 -48.7500
v  1618.8438 3.8368 -48.7500
v  -1618.8438 8.6106 -72.7490
v  1618.8438 8.6105 -72.7490
v  -1618.8438 15.2525 -96.2995
v  1618.8438 15.2524 -96.2995
v  -1618.8438 23.7217 -119.2563
v  1618.8438 23.7216 -119.2563
v  -1618.8438 33.9660 -141.4779
v  1618.8438 33.9659 -141.4779
v  -1618.8438 45.9221 -162.8271
v  1618.8438 45.9221 -162.8271
v  -1618.8438 59.5165 -183.1725
v  1618.8438 59.5164 -183.1725
v  -1618.8438 74.6653 -202.3886
v  1618.8438 74.6652 -202.3886
v  -1618.8438 91.2750 -220.3569
v  1618.8438 91.2749 -220.3569
v  -1618.8438 109.2433 -236.9667
v  1618.8438 109.2432 -236.9667
v  -1618.8438 128.4594 -252.1154
v  1618.8438 128.4593 -252.1154
v  -1618.8438 148.8048 -265.7098
v  1618.8438 148.8047 -265.7098
v  -1618.8438 170.1541 -277.6660
v  1618.8438 170.1540 -277.6660
v  -1618.8438 192.3757 -287.9102
v  1618.8438 192.3756 -287.9102
v  -1618.8438 215.3325 -296.3794
v  1618.8438 215.3324 -296.3794
v  -1618.8438 238.8830 -303.0214
v  1618.8438 238.8829 -303.0214
v  -1618.8438 262.8820 -307.7951
v  1618.8438 262.8820 -307.7951
v  -1618.8438 287.1817 -310.6711
v  1618.8438 287.1816 -310.6711
v  -1618.8438 311.6320 -311.6317
v  1618.8438 311.6319 -311.6317
v  -1618.8438 336.0824 -310.6711
v  1618.8438 336.0823 -310.6711
v  -1618.8438 360.3820 -307.7950
v  1618.8438 360.3819 -307.7950
v  -1618.8438 384.3810 -303.0213
v  1618.8438 384.3810 -303.0213
v  -1618.8438 407.9316 -296.3794
v  1618.8438 407.9315 -296.3794
v  -1618.8438 430.8884 -287.9101
v  1618.8438 430.8883 -287.9101
v  -1618.8438 453.1099 -277.6658
v  1618.8438 453.1098 -277.6658
v  -1618.8438 474.4592 -265.7097
v  1618.8438 474.4591 -265.7097
v  -1618.8438 494.8046 -252.1152
v  1618.8438 494.8045 -252.1152
v  -1618.8438 514.0207 -236.9665
v  1618.8438 514.0206 -236.9665
v  -1618.8438 531.9890 -220.3568
v  1618.8438 531.9889 -220.3568
v  -1618.8438 548.5987 -202.3885
v  1618.8438 548.5986 -202.3885
v  -1618.8438 563.7474 -183.1723
v  1618.8438 563.7473 -183.1723
v  -1618.8438 577.3418 -162.8269
v  1618.8438 577.3417 -162.8269
v  -1618.8438 589.2979 -141.4776
v  1618.8438 589.2979 -141.4776
v  -1618.8438 599.5422 -119.2561
v  1618.8438 599.5421 -119.2561
v  -1618.8438 608.0114 -96.2992
v  1618.8438 608.0113 -96.2992
v  -1618.8438 614.6533 -72.7487
v  1618.8438 614.6532 -72.7487
v  -1618.8438 619.4270 -48.7496
v  1618.8438 619.4269 -48.7496
v  -1618.8438 622.3030 -24.4500
v  1618.8438 622.3029 -24.4500
v  -1618.8438 623.2637 0.0003
v  1618.8438 623.2635 0.0003
v  -1618.8438 622.3030 24.4507
v  1618.8438 622.3029 24.4507
v  -1618.8438 619.4269 48.7503
v  1618.8438 619.4268 48.7503
v  -1618.8438 614.6532 72.7493
v  1618.8438 614.6531 72.7493
v  -1618.8438 608.0112 96.2999
v  1618.8438 608.0111 96.2999
v  -1618.8438 599.5420 119.2566
v  1618.8438 599.5419 119.2566
v  -1618.8438 589.2976 141.4782
v  1618.8438 589.2975 141.4782
v  -1618.8438 577.3414 162.8275
v  1618.8438 577.3413 162.8275
v  -1618.8438 563.7471 183.1729
v  1618.8438 563.7469 183.1729
v  -1618.8438 548.5983 202.3889
v  1618.8438 548.5982 202.3889
v  -1618.8438 531.9885 220.3572
v  1618.8438 531.9884 220.3572
v  -1618.8438 514.0203 236.9669
v  1618.8438 514.0201 236.9669
v  -1618.8438 494.8041 252.1156
v  1618.8438 494.8041 252.1156
v  -1618.8438 474.4587 265.7099
v  1618.8438 474.4586 265.7099
v  -1618.8438 453.1094 277.6661
v  1618.8438 453.1093 277.6661
v  -1618.8438 430.8878 287.9103
v  1618.8438 430.8878 287.9103
v  -1618.8438 407.9310 296.3795
v  1618.8438 407.9309 296.3795
v  -1618.8438 384.3805 303.0214
v  1618.8438 384.3804 303.0214
v  -1618.8438 360.3814 307.7951
v  1618.8438 360.3813 307.7951
v  -1618.8438 336.0818 310.6711
v  1618.8438 336.0817 310.6711
v  -1618.8438 311.6314 311.6317
v  1618.8438 311.6313 311.6317
v  -1618.8438 287.1811 310.6711
v  1618.8438 287.1810 310.6711
v  -1618.8438 262.8815 307.7950
v  1618.8438 262.8814 307.7950
v  -1618.8438 238.8824 303.0212
v  1618.8438 238.8824 303.0212
v  -1618.8438 215.3319 296.3792
v  1618.8438 215.3318 296.3792
v  -1618.8438 192.3751 287.9100
v  1618.8438 192.3750 287.9100
v  -1618.8438 170.1536 277.6657
v  1618.8438 170.1535 277.6657
v  -1618.8438 148.8043 265.7095
v  1618.8438 148.8042 265.7095
v  -1618.8438 128.4589 252.1151
v  1618.8438 128.4588 252.1151
v  -1618.8438 109.2429 236.9663
v  1618.8438 109.2428 236.9663
v  -1618.8438 91.2746 220.3565
v  1618.8438 91.2745 220.3565
v  -1618.8438 74.6649 202.3882
v  1618.8438 74.6648 202.3882
v  -1618.8438 59.5162 183.1721
v  1618.8438 59.5161 183.1721
v  -1618.8438 45.9219 162.8266
v  1618.8438 45.9218 162.8266
v  -1618.8438 33.9657 141.4773
v  1618.8438 33.9656 141.4773
v  -1618.8438 23.7215 119.2558
v  1618.8438 23.7214 119.2558
v  -1618.8438 15.2523 96.2989
v  1618.8438 15.2522 96.2989
v  -1618.8438 8.6104 72.7484
v  1618.8438 8.6103 72.7484
v  -1618.8438 3.8368 48.7493
v  1618.8438 3.8367 48.7493
v  -1618.8438 0.9608 24.4497
v  1618.8438 0.9607 24.4497
# 160 vertices

vn -0.0000 -1.0000 -0.0000
vn -0.0000 -0.9969 -0.0785
vn -0.0000 -0.9877 -0.1564
vn -0.0000 -0.9724 -0.2334
vn -0.0000 -0.9511 -0.3090
vn -0.0000 -0.9239 -0.3827
vn -0.0000 -0.8910 -0.4540
vn -0.0000 -0.8526 -0.5225
vn -0.0000 -0.8090 -0.5878
vn -0.0000 -0.7604 -0.6494
vn -0.0000 -0.7071 -0.7071
vn -0.0000 -0.6494 -0.7604
vn -0.0000 -0.5878 -0.8090
vn -0.0000 -0.5225 -0.8526
vn -0.0000 -0.4540 -0.8910
vn -0.0000 -0.3827 -0.9239
vn -0.0000 -0.3090 -0.9511
vn -0.0000 -0.2334 -0.9724
vn -0.0000 -0.1564 -0.9877
vn -0.0000 -0.0785 -0.9969
vn 0.0000 0.0000 -1.0000
vn -0.0000 0.0000 -1.0000
vn 0.0000 0.0785 -0.9969
vn 0.0000 0.1564 -0.9877
vn 0.0000 0.2334 -0.9724
vn 0.0000 0.3090 -0.9511
vn 0.0000 0.3827 -0.9239
vn 0.0000 0.4540 -0.8910
vn 0.0000 0.5225 -0.8526
vn 0.0000 0.5878 -0.8090
vn 0.0000 0.6494 -0.7604
vn 0.0000 0.7071 -0.7071
vn 0.0000 0.7604 -0.6494
vn 0.0000 0.8090 -0.5878
vn 0.0000 0.8526 -0.5225
vn 0.0000 0.8910 -0.4540
vn 0.0000 0.9239 -0.3827
vn 0.0000 0.9511 -0.3090
vn 0.0000 0.9724 -0.2334
vn 0.0000 0.9877 -0.1564
vn 0.0000 0.9969 -0.0785
vn 0.0000 1.0000 0.0000
vn 0.0000 0.9969 0.0785
vn 0.0000 0.9877 0.1564
vn 0.0000 0.9724 0.2334
vn 0.0000 0.9511 0.3090
vn 0.0000 0.9239 0.3827
vn 0.0000 0.8910 0.4540
vn 0.0000 0.8526 0.5225
vn 0.0000 0.8090 0.5878
vn 0.0000 0.7604 0.6494
vn 0.0000 0.7071 0.7071
vn 0.0000 0.6494 0.7604
vn 0.0000 0.5878 0.8090
vn 0.0000 0.5225 0.8526
vn 0.0000 0.4540 0.8910
vn 0.0000 0.3827 0.9239
vn 0.0000 0.3090 0.9511
vn 0.0000 0.2334 0.9724
vn 0.0000 0.1564 0.9877
vn 0.0000 0.0785 0.9969
vn -0.0000 -0.0000 1.0000
vn 0.0000 -0.0000 1.0000
vn -0.0000 -0.0785 0.9969
vn -0.0000 -0.1564 0.9877
vn -0.0000 -0.2334 0.9724
vn -0.0000 -0.3090 0.9511
vn -0.0000 -0.3827 0.9239
vn -0.0000 -0.4540 0.8910
vn -0.0000 -0.5225 0.8526
vn -0.0000 -0.5878 0.8090
vn -0.0000 -0.6494 0.7604
vn -0.0000 -0.7071 0.7071
vn -0.0000 -0.7604 0.6494
vn -0.0000 -0.8090 0.5878
vn -0.0000 -0.8526 0.5225
vn -0.0000 -0.8910 0.4540
vn -0.0000 -0.9239 0.3827
vn -0.0000 -0.9511 0.3090
vn -0.0000 -0.9724 0.2334
vn -0.0000 -0.9877 0.1564
vn -0.0000 -0.9969 0.0785
vn -1.0000 0.0000 -0.0000
vn 1.0000 -0.0000 -0.0000
# 84 vertex normals

vt 0.7500 0.0000 1.0000
vt 0.7625 0.0000 1.0000
vt 0.7625 1.0000 1.0000
vt 0.7500 1.0000 1.0000
vt 0.7750 0.0000 1.0000
vt 0.7750 1.0000 1.0000
vt 0.7875 0.0000 1.0000
vt 0.7875 1.0000 1.0000
vt 0.8000 0.0000 1.0000
vt 0.8000 1.0000 1.0000
vt 0.8125 0.0000 1.0000
vt 0.8125 1.0000 1.0000
vt 0.8250 0.0000 1.0000
vt 0.8250 1.0000 1.0000
vt 0.8375 0.0000 1.0000
vt 0.8375 1.0000 1.0000
vt 0.8500 0.0000 1.0000
vt 0.8500 1.0000 1.0000
vt 0.8625 0.0000 1.0000
vt 0.8625 1.0000 1.0000
vt 0.8750 0.0000 1.0000
vt 0.8750 1.0000 1.0000
vt 0.8875 0.0000 1.0000
vt 0.8875 1.0000 1.0000
vt 0.9000 0.0000 1.0000
vt 0.9000 1.0000 1.0000
vt 0.9125 0.0000 1.0000
vt 0.9125 1.0000 1.0000
vt 0.9250 0.0000 1.0000
vt 0.9250 1.0000 1.0000
vt 0.9375 0.0000 1.0000
vt 0.9375 1.0000 1.0000
vt 0.9500 0.0000 1.0000
vt 0.9500 1.0000 1.0000
vt 0.9625 0.0000 1.0000
vt 0.9625 1.0000 1.0000
vt 0.9750 0.0000 1.0000
vt 0.9750 1.0000 1.0000
vt 0.9875 0.0000 1.0000
vt 0.9875 1.0000 1.0000
vt 1.0000 0.0000 1.0000
vt 1.0000 1.0000 1.0000
vt 0.0000 0.0000 1.0000
vt 0.0125 0.0000 1.0000
vt 0.0125 1.0000 1.0000
vt 0.0000 1.0000 1.0000
vt 0.0250 0.0000 1.0000
vt 0.0250 1.0000 1.0000
vt 0.0375 0.0000 1.0000
vt 0.0375 1.0000 1.0000
vt 0.0500 0.0000 1.0000
vt 0.0500 1.0000 1.0000
vt 0.0625 0.0000 1.0000
vt 0.0625 1.0000 1.0000
vt 0.0750 0.0000 1.0000
vt 0.0750 1.0000 1.0000
vt 0.0875 0.0000 1.0000
vt 0.0875 1.0000 1.0000
vt 0.1000 0.0000 1.0000
vt 0.1000 1.0000 1.0000
vt 0.1125 0.0000 1.0000
vt 0.1125 1.0000 1.0000
vt 0.1250 0.0000 1.0000
vt 0.1250 1.0000 1.0000
vt 0.1375 0.0000 1.0000
vt 0.1375 1.0000 1.0000
vt 0.1500 0.0000 1.0000
vt 0.1500 1.0000 1.0000
vt 0.1625 0.0000 1.0000
vt 0.1625 1.0000 1.0000
vt 0.1750 0.0000 1.0000
vt 0.1750 1.0000 1.0000
vt 0.1875 0.0000 1.0000
vt 0.1875 1.0000 1.0000
vt 0.2000 0.0000 1.0000
vt 0.2000 1.0000 1.0000
vt 0.2125 0.0000 1.0000
vt 0.2125 1.0000 1.0000
vt 0.2250 0.0000 1.0000
vt 0.2250 1.0000 1.0000
vt 0.2375 0.0000 1.0000
vt 0.2375 1.0000 1.0000
vt 0.2500 0.0000 1.0000
vt 0.2500 1.0000 1.0000
vt 0.2625 0.0000 1.0000
vt 0.2625 1.0000 1.0000
vt 0.2750 0.0000 1.0000
vt 0.2750 1.0000 1.0000
vt 0.2875 0.0000 1.0000
vt 0.2875 1.0000 1.0000
vt 0.3000 0.0000 1.0000
vt 0.3000 1.0000 1.0000
vt 0.3125 0.0000 1.0000
vt 0.3125 1.0000 1.0000
vt 0.3250 0.0000 1.0000
vt 0.3250 1.0000 1.0000
vt 0.3375 0.0000 1.0000
vt 0.3375 1.0000 1.0000
vt 0.3500 0.0000 1.0000
vt 0.3500 1.0000 1.0000
vt 0.3625 0.0000 1.0000
vt 0.3625 1.0000 1.0000
vt 0.3750 0.0000 1.0000
vt 0.3750 1.0000 1.0000
vt 0.3875 0.0000 1.0000
vt 0.3875 1.0000 1.0000
vt 0.4000 0.0000 1.0000
vt 0.4000 1.0000 1.0000
vt 0.4125 0.0000 1.0000
vt 0.4125 1.0000 1.0000
vt 0.4250 0.0000 1.0000
vt 0.4250 1.0000 1.0000
vt 0.4375 0.0000 1.0000
vt 0.4375 1.0000 1.0000
vt 0.4500 0.0000 1.0000
vt 0.4500 1.0000 1.0000
vt 0.4625 0.0000 1.0000
vt 0.4625 1.0000 1.0000
vt 0.4750 0.0000 1.0000
vt 0.4750 1.0000 1.0000
vt 0.4875 0.0000 1.0000
vt 0.4875 1.0000 1.0000
vt 0.5000 0.0000 1.0000
vt 0.5000 1.0000 1.0000
vt 0.5125 0.0000 1.0000
vt 0.5125 1.0000 1.0000
vt 0.5250 0.0000 1.0000
vt 0.5250 1.0000 1.0000
vt 0.5375 0.0000 1.0000
vt 0.5375 1.0000 1.0000
vt 0.5500 0.0000 1.0000
vt 0.5500 1.0000 1.0000
vt 0.5625 0.0000 1.0000
vt 0.5625 1.0000 1.0000
vt 0.5750 0.0000 1.0000
vt 0.5750 1.0000 1.0000
vt 0.5875 0.0000 1.0000
vt 0.5875 1.0000 1.0000
vt 0.6000 0.0000 1.0000
vt 0.6000 1.0000 1.0000
vt 0.6125 0.0000 1.0000
vt 0.6125 1.0000 1.0000
vt 0.6250 0.0000 1.0000
vt 0.6250 1.0000 1.0000
vt 0.6375 0.0000 1.0000
vt 0.6375 1.0000 1.0000
vt 0.6500 0.0000 1.0000
vt 0.6500 1.0000 1.0000
vt 0.6625 0.0000 1.0000
vt 0.6625 1.0000 1.0000
vt 0.6750 0.0000 1.0000
vt 0.6750 1.0000 1.0000
vt 0.6875 0.0000 1.0000
vt 0.6875 1.0000 1.0000
vt 0.7000 0.0000 1.0000
vt 0.7000 1.0000 1.0000
vt 0.7125 0.0000 1.0000
vt 0.7125 1.0000 1.0000
vt 0.7250 0.0000 1.0000
vt 0.7250 1.0000 1.0000
vt 0.7375 0.0000 1.0000
vt 0.7375 1.0000 1.0000
vt 0.5782 0.9938 -0.2500
vt 0.6167 0.9862 -0.2500
vt 0.6545 0.9755 -0.2500
vt 0.5000 1.0000 -0.2500
vt 0.6913 0.9619 -0.2500
vt 0.7270 0.9455 -0.2500
vt 0.7939 0.9045 -0.2500
vt 0.7612 0.9263 -0.2500
vt 0.8247 0.8802 -0.2500
vt 0.8536 0.8536 -0.2500
vt 0.9045 0.7939 -0.2500
vt 0.8802 0.8247 -0.2500
vt 0.9263 0.7613 -0.2500
vt 0.9455 0.7270 -0.2500
vt 0.9755 0.6545 -0.2500
vt 0.9619 0.6913 -0.2500
vt 0.9862 0.6167 -0.2500
vt 0.9938 0.5782 -0.2500
vt 1.0000 0.5000 -0.2500
vt 0.9985 0.5392 -0.2500
vt 0.9985 0.4608 -0.2500
vt 0.9938 0.4218 -0.2500
vt 0.9755 0.3455 -0.2500
vt 0.9862 0.3833 -0.2500
vt 0.7939 0.0955 -0.2500
vt 0.9619 0.3087 -0.2500
vt 0.9455 0.2730 -0.2500
vt 0.9045 0.2061 -0.2500
vt 0.9263 0.2388 -0.2500
vt 0.8802 0.1753 -0.2500
vt 0.8536 0.1464 -0.2500
vt 0.8247 0.1198 -0.2500
vt 0.7612 0.0737 -0.2500
vt 0.7270 0.0545 -0.2500
vt 0.6545 0.0245 -0.2500
vt 0.6913 0.0381 -0.2500
vt 0.6167 0.0138 -0.2500
vt 0.5782 0.0062 -0.2500
vt 0.5000 0.0000 -0.2500
vt 0.5392 0.0015 -0.2500
vt 0.2061 0.0955 -0.2500
vt 0.4608 0.0015 -0.2500
vt 0.4218 0.0062 -0.2500
vt 0.3455 0.0245 -0.2500
vt 0.3833 0.0138 -0.2500
vt 0.3087 0.0381 -0.2500
vt 0.2730 0.0545 -0.2500
vt 0.2388 0.0737 -0.2500
vt 0.1753 0.1198 -0.2500
vt 0.1464 0.1464 -0.2500
vt 0.0955 0.2061 -0.2500
vt 0.1198 0.1753 -0.2500
vt 0.0737 0.2388 -0.2500
vt 0.0545 0.2730 -0.2500
vt 0.0245 0.3455 -0.2500
vt 0.0381 0.3087 -0.2500
vt 0.0245 0.6545 -0.2500
vt 0.0138 0.3833 -0.2500
vt 0.0062 0.4218 -0.2500
vt 0.0000 0.5000 -0.2500
vt 0.0015 0.4608 -0.2500
vt 0.0015 0.5392 -0.2500
vt 0.0062 0.5782 -0.2500
vt 0.0138 0.6167 -0.2500
vt 0.0381 0.6913 -0.2500
vt 0.0545 0.7270 -0.2500
vt 0.0955 0.7939 -0.2500
vt 0.0737 0.7612 -0.2500
vt 0.1198 0.8247 -0.2500
vt 0.1464 0.8536 -0.2500
vt 0.2061 0.9045 -0.2500
vt 0.1753 0.8802 -0.2500
vt 0.2388 0.9263 -0.2500
vt 0.2730 0.9455 -0.2500
vt 0.3455 0.9755 -0.2500
vt 0.3087 0.9619 -0.2500
vt 0.3833 0.9862 -0.2500
vt 0.4218 0.9938 -0.2500
vt 0.4608 0.9985 -0.2500
vt 0.5392 0.9985 -0.2500
vt 0.4608 0.9985 0.2500
vt 0.4218 0.9938 0.2500
vt 0.3833 0.9862 0.2500
vt 0.5392 0.9985 0.2500
vt 0.3455 0.9755 0.2500
vt 0.3087 0.9619 0.2500
vt 0.2388 0.9263 0.2500
vt 0.2730 0.9455 0.2500
vt 0.2061 0.9045 0.2500
vt 0.1753 0.8802 0.2500
vt 0.1198 0.8247 0.2500
vt 0.1464 0.8536 0.2500
vt 0.0955 0.7939 0.2500
vt 0.0737 0.7612 0.2500
vt 0.0381 0.6913 0.2500
vt 0.0545 0.7270 0.2500
vt 0.0245 0.6545 0.2500
vt 0.0138 0.6167 0.2500
vt 0.0015 0.5392 0.2500
vt 0.0062 0.5782 0.2500
vt 0.0000 0.5000 0.2500
vt 0.0015 0.4608 0.2500
vt 0.0138 0.3833 0.2500
vt 0.0062 0.4218 0.2500
vt 0.1753 0.1198 0.2500
vt 0.0245 0.3455 0.2500
vt 0.0381 0.3087 0.2500
vt 0.0737 0.2388 0.2500
vt 0.0545 0.2730 0.2500
vt 0.0955 0.2061 0.2500
vt 0.1198 0.1753 0.2500
vt 0.1464 0.1464 0.2500
vt 0.2061 0.0955 0.2500
vt 0.2388 0.0737 0.2500
vt 0.3087 0.0381 0.2500
vt 0.2730 0.0545 0.2500
vt 0.3455 0.0245 0.2500
vt 0.3833 0.0138 0.2500
vt 0.4608 0.0015 0.2500
vt 0.4218 0.0062 0.2500
vt 0.7612 0.0737 0.2500
vt 0.5000 0.0000 0.2500
vt 0.5392 0.0015 0.2500
vt 0.6167 0.0138 0.2500
vt 0.5782 0.0062 0.2500
vt 0.6545 0.0245 0.2500
vt 0.6913 0.0381 0.2500
vt 0.7270 0.0545 0.2500
vt 0.7939 0.0955 0.2500
vt 0.8247 0.1198 0.2500
vt 0.8802 0.1753 0.2500
vt 0.8536 0.1464 0.2500
vt 0.9045 0.2061 0.2500
vt 0.9263 0.2388 0.2500
vt 0.9619 0.3087 0.2500
vt 0.9455 0.2730 0.2500
vt 0.9862 0.6167 0.2500
vt 0.9755 0.3455 0.2500
vt 0.9862 0.3833 0.2500
vt 0.9985 0.4608 0.2500
vt 0.9938 0.4218 0.2500
vt 1.0000 0.5000 0.2500
vt 0.9985 0.5392 0.2500
vt 0.9938 0.5782 0.2500
vt 0.9755 0.6545 0.2500
vt 0.9619 0.6913 0.2500
vt 0.9263 0.7613 0.2500
vt 0.9455 0.7270 0.2500
vt 0.9045 0.7939 0.2500
vt 0.8802 0.8247 0.2500
vt 0.8247 0.8802 0.2500
vt 0.8536 0.8536 0.2500
vt 0.7939 0.9045 0.2500
vt 0.7612 0.9263 0.2500
vt 0.6913 0.9619 0.2500
vt 0.7270 0.9455 0.2500
vt 0.6545 0.9755 0.2500
vt 0.6167 0.9862 0.2500
vt 0.5782 0.9938 0.2500
vt 0.5000 1.0000 0.2500
# 322 texture coords

g Cylinder004
usemtl ______2
s 8
f 1/1/1 2/2/2 3/3/2 4/4/1 
f 2/2/2 5/5/3 6/6/3 3/3/2 
f 5/5/3 7/7/4 8/8/4 6/6/3 
f 7/7/4 9/9/5 10/10/5 8/8/4 
f 9/9/5 11/11/6 12/12/6 10/10/5 
f 11/11/6 13/13/7 14/14/7 12/12/6 
f 13/13/7 15/15/8 16/16/8 14/14/7 
f 15/15/8 17/17/9 18/18/9 16/16/8 
f 17/17/9 19/19/10 20/20/10 18/18/9 
f 19/19/10 21/21/11 22/22/11 20/20/10 
f 21/21/11 23/23/12 24/24/12 22/22/11 
f 23/23/12 25/25/13 26/26/13 24/24/12 
f 25/25/13 27/27/14 28/28/14 26/26/13 
f 27/27/14 29/29/15 30/30/15 28/28/14 
f 29/29/15 31/31/16 32/32/16 30/30/15 
f 31/31/16 33/33/17 34/34/17 32/32/16 
f 33/33/17 35/35/18 36/36/18 34/34/17 
f 35/35/18 37/37/19 38/38/19 36/36/18 
f 37/37/19 39/39/20 40/40/20 38/38/19 
f 39/39/20 41/41/21 42/42/22 40/40/20 
f 41/43/21 43/44/23 44/45/23 42/46/22 
f 43/44/23 45/47/24 46/48/24 44/45/23 
f 45/47/24 47/49/25 48/50/25 46/48/24 
f 47/49/25 49/51/26 50/52/26 48/50/25 
f 49/51/26 51/53/27 52/54/27 50/52/26 
f 51/53/27 53/55/28 54/56/28 52/54/27 
f 53/55/28 55/57/29 56/58/29 54/56/28 
f 55/57/29 57/59/30 58/60/30 56/58/29 
f 57/59/30 59/61/31 60/62/31 58/60/30 
f 59/61/31 61/63/32 62/64/32 60/62/31 
f 61/63/32 63/65/33 64/66/33 62/64/32 
f 63/65/33 65/67/34 66/68/34 64/66/33 
f 65/67/34 67/69/35 68/70/35 66/68/34 
f 67/69/35 69/71/36 70/72/36 68/70/35 
f 69/71/36 71/73/37 72/74/37 70/72/36 
f 71/73/37 73/75/38 74/76/38 72/74/37 
f 73/75/38 75/77/39 76/78/39 74/76/38 
f 75/77/39 77/79/40 78/80/40 76/78/39 
f 77/79/40 79/81/41 80/82/41 78/80/40 
f 79/81/41 81/83/42 82/84/42 80/82/41 
f 81/83/42 83/85/43 84/86/43 82/84/42 
f 83/85/43 85/87/44 86/88/44 84/86/43 
f 85/87/44 87/89/45 88/90/45 86/88/44 
f 87/89/45 89/91/46 90/92/46 88/90/45 
f 89/91/46 91/93/47 92/94/47 90/92/46 
f 91/93/47 93/95/48 94/96/48 92/94/47 
f 93/95/48 95/97/49 96/98/49 94/96/48 
f 95/97/49 97/99/50 98/100/50 96/98/49 
f 97/99/50 99/101/51 100/102/51 98/100/50 
f 99/101/51 101/103/52 102/104/52 100/102/51 
f 101/103/52 103/105/53 104/106/53 102/104/52 
f 103/105/53 105/107/54 106/108/54 104/106/53 
f 105/107/54 107/109/55 108/110/55 106/108/54 
f 107/109/55 109/111/56 110/112/56 108/110/55 
f 109/111/56 111/113/57 112/114/57 110/112/56 
f 111/113/57 113/115/58 114/116/58 112/114/57 
f 113/115/58 115/117/59 116/118/59 114/116/58 
f 115/117/59 117/119/60 118/120/60 116/118/59 
f 117/119/60 119/121/61 120/122/61 118/120/60 
f 119/121/61 121/123/62 122/124/63 120/122/61 
f 121/123/62 123/125/64 124/126/64 122/124/63 
f 123/125/64 125/127/65 126/128/65 124/126/64 
f 125/127/65 127/129/66 128/130/66 126/128/65 
f 127/129/66 129/131/67 130/132/67 128/130/66 
f 129/131/67 131/133/68 132/134/68 130/132/67 
f 131/133/68 133/135/69 134/136/69 132/134/68 
f 133/135/69 135/137/70 136/138/70 134/136/69 
f 135/137/70 137/139/71 138/140/71 136/138/70 
f 137/139/71 139/141/72 140/142/72 138/140/71 
f 139/141/72 141/143/73 142/144/73 140/142/72 
f 141/143/73 143/145/74 144/146/74 142/144/73 
f 143/145/74 145/147/75 146/148/75 144/146/74 
f 145/147/75 147/149/76 148/150/76 146/148/75 
f 147/149/76 149/151/77 150/152/77 148/150/76 
f 149/151/77 151/153/78 152/154/78 150/152/77 
f 151/153/78 153/155/79 154/156/79 152/154/78 
f 153/155/79 155/157/80 156/158/80 154/156/79 
f 155/157/80 157/159/81 158/160/81 156/158/80 
f 157/159/81 159/161/82 160/162/82 158/160/81 
f 159/161/82 1/1/1 4/4/1 160/162/82 
s 1
f 157/163/83 155/164/83 153/165/83 1/166/83 
f 153/165/83 151/167/83 149/168/83 145/169/83 
f 149/168/83 147/170/83 145/169/83 
f 145/169/83 143/171/83 141/172/83 137/173/83 
f 141/172/83 139/174/83 137/173/83 
f 137/173/83 135/175/83 133/176/83 129/177/83 
f 133/176/83 131/178/83 129/177/83 
f 145/169/83 137/173/83 129/177/83 1/166/83 
f 129/177/83 127/179/83 125/180/83 121/181/83 
f 125/180/83 123/182/83 121/181/83 
f 121/181/83 119/183/83 117/184/83 113/185/83 
f 117/184/83 115/186/83 113/185/83 
f 129/177/83 121/181/83 113/185/83 97/187/83 
f 113/185/83 111/188/83 109/189/83 105/190/83 
f 109/189/83 107/191/83 105/190/83 
f 105/190/83 103/192/83 101/193/83 97/187/83 
f 101/193/83 99/194/83 97/187/83 
f 113/185/83 105/190/83 97/187/83 
f 97/187/83 95/195/83 93/196/83 89/197/83 
f 93/196/83 91/198/83 89/197/83 
f 89/197/83 87/199/83 85/200/83 81/201/83 
f 85/200/83 83/202/83 81/201/83 
f 97/187/83 89/197/83 81/201/83 65/203/83 
f 81/201/83 79/204/83 77/205/83 73/206/83 
f 77/205/83 75/207/83 73/206/83 
f 73/206/83 71/208/83 69/209/83 65/203/83 
f 69/209/83 67/210/83 65/203/83 
f 81/201/83 73/206/83 65/203/83 
f 65/203/83 63/211/83 61/212/83 57/213/83 
f 61/212/83 59/214/83 57/213/83 
f 57/213/83 55/215/83 53/216/83 49/217/83 
f 53/216/83 51/218/83 49/217/83 
f 65/203/83 57/213/83 49/217/83 33/219/83 
f 49/217/83 47/220/83 45/221/83 41/222/83 
f 45/221/83 43/223/83 41/222/83 
f 41/222/83 39/224/83 37/225/83 33/219/83 
f 37/225/83 35/226/83 33/219/83 
f 49/217/83 41/222/83 33/219/83 
f 33/219/83 31/227/83 29/228/83 25/229/83 
f 29/228/83 27/230/83 25/229/83 
f 25/229/83 23/231/83 21/232/83 17/233/83 
f 21/232/83 19/234/83 17/233/83 
f 33/219/83 25/229/83 17/233/83 1/166/83 
f 17/233/83 15/235/83 13/236/83 9/237/83 
f 13/236/83 11/238/83 9/237/83 
f 9/237/83 7/239/83 5/240/83 1/166/83 
f 5/240/83 2/241/83 1/166/83 
f 17/233/83 9/237/83 1/166/83 
f 65/203/83 33/219/83 1/166/83 97/187/83 
f 129/177/83 97/187/83 1/166/83 
f 153/165/83 145/169/83 1/166/83 
f 159/242/83 157/163/83 1/166/83 
f 3/243/84 6/244/84 8/245/84 160/246/84 
f 8/245/84 10/247/84 12/248/84 16/249/84 
f 12/248/84 14/250/84 16/249/84 
f 16/249/84 18/251/84 20/252/84 24/253/84 
f 20/252/84 22/254/84 24/253/84 
f 24/253/84 26/255/84 28/256/84 32/257/84 
f 28/256/84 30/258/84 32/257/84 
f 16/249/84 24/253/84 32/257/84 160/246/84 
f 32/257/84 34/259/84 36/260/84 40/261/84 
f 36/260/84 38/262/84 40/261/84 
f 40/261/84 42/263/84 44/264/84 48/265/84 
f 44/264/84 46/266/84 48/265/84 
f 32/257/84 40/261/84 48/265/84 64/267/84 
f 48/265/84 50/268/84 52/269/84 56/270/84 
f 52/269/84 54/271/84 56/270/84 
f 56/270/84 58/272/84 60/273/84 64/267/84 
f 60/273/84 62/274/84 64/267/84 
f 48/265/84 56/270/84 64/267/84 
f 64/267/84 66/275/84 68/276/84 72/277/84 
f 68/276/84 70/278/84 72/277/84 
f 72/277/84 74/279/84 76/280/84 80/281/84 
f 76/280/84 78/282/84 80/281/84 
f 64/267/84 72/277/84 80/281/84 96/283/84 
f 80/281/84 82/284/84 84/285/84 88/286/84 
f 84/285/84 86/287/84 88/286/84 
f 88/286/84 90/288/84 92/289/84 96/283/84 
f 92/289/84 94/290/84 96/283/84 
f 80/281/84 88/286/84 96/283/84 
f 96/283/84 98/291/84 100/292/84 104/293/84 
f 100/292/84 102/294/84 104/293/84 
f 104/293/84 106/295/84 108/296/84 112/297/84 
f 108/296/84 110/298/84 112/297/84 
f 96/283/84 104/293/84 112/297/84 128/299/84 
f 112/297/84 114/300/84 116/301/84 120/302/84 
f 116/301/84 118/303/84 120/302/84 
f 120/302/84 122/304/84 124/305/84 128/299/84 
f 124/305/84 126/306/84 128/299/84 
f 112/297/84 120/302/84 128/299/84 
f 128/299/84 130/307/84 132/308/84 136/309/84 
f 132/308/84 134/310/84 136/309/84 
f 136/309/84 138/311/84 140/312/84 144/313/84 
f 140/312/84 142/314/84 144/313/84 
f 128/299/84 136/309/84 144/313/84 160/246/84 
f 144/313/84 146/315/84 148/316/84 152/317/84 
f 148/316/84 150/318/84 152/317/84 
f 152/317/84 154/319/84 156/320/84 160/246/84 
f 156/320/84 158/321/84 160/246/84 
f 144/313/84 152/317/84 160/246/84 
f 96/283/84 128/299/84 160/246/84 64/267/84 
f 32/257/84 64/267/84 160/246/84 
f 8/245/84 16/249/84 160/246/84 
f 4/322/84 3/243/84 160/246/84 
# 132 polygons - 52 triangles

