# 3ds Max Wavefront OBJ Exporter v0.97b - (c)2007 guruware
# 创建的文件:04.04.2017 17:39:38

mtllib s.mtl

#
# object Cylinder001
#

v  0.5000 0.0000 -0.0000
v  0.4843 0.0000 -0.1243
v  0.3186 0.0500 -0.0818
v  0.3290 0.0500 -0.0000
v  0.4382 0.0000 -0.2409
v  0.2883 0.0500 -0.1585
v  0.3645 0.0000 -0.3423
v  0.2398 0.0500 -0.2252
v  0.2679 0.0000 -0.4222
v  0.1763 0.0500 -0.2778
v  0.1545 0.0000 -0.4755
v  0.1017 0.0500 -0.3129
v  0.0314 0.0000 -0.4990
v  0.0207 0.0500 -0.3283
v  -0.0937 0.0000 -0.4911
v  -0.0616 0.0500 -0.3232
v  -0.2129 0.0000 -0.4524
v  -0.1401 0.0500 -0.2977
v  -0.3187 0.0000 -0.3853
v  -0.2097 0.0500 -0.2535
v  -0.4045 0.0000 -0.2939
v  -0.2662 0.0500 -0.1934
v  -0.4649 0.0000 -0.1841
v  -0.3059 0.0500 -0.1211
v  -0.4961 0.0000 -0.0627
v  -0.3264 0.0500 -0.0412
v  -0.4961 0.0000 0.0627
v  -0.3264 0.0500 0.0412
v  -0.4649 0.0000 0.1841
v  -0.3059 0.0500 0.1211
v  -0.4045 0.0000 0.2939
v  -0.2662 0.0500 0.1934
v  -0.3187 0.0000 0.3853
v  -0.2097 0.0500 0.2535
v  -0.2129 0.0000 0.4524
v  -0.1401 0.0500 0.2977
v  -0.0937 0.0000 0.4911
v  -0.0616 0.0500 0.3232
v  0.0314 0.0000 0.4990
v  0.0207 0.0500 0.3283
v  0.1545 0.0000 0.4755
v  0.1017 0.0500 0.3129
v  0.2679 0.0000 0.4222
v  0.1763 0.0500 0.2778
v  0.3645 0.0000 0.3423
v  0.2398 0.0500 0.2252
v  0.4382 0.0000 0.2409
v  0.2883 0.0500 0.1585
v  0.4843 0.0000 0.1243
v  0.3186 0.0500 0.0818
# 50 vertices

vn 0.9913 -0.1318 -0.0000
vn 0.9601 -0.1318 -0.2465
vn 0.1480 0.9883 -0.0380
vn 0.1528 0.9883 -0.0000
vn 0.8687 -0.1318 -0.4776
vn 0.1339 0.9883 -0.0736
vn 0.7226 -0.1318 -0.6786
vn 0.1114 0.9883 -0.1046
vn 0.5312 -0.1318 -0.8370
vn 0.0819 0.9883 -0.1290
vn 0.3063 -0.1318 -0.9428
vn 0.0472 0.9883 -0.1453
vn 0.0622 -0.1318 -0.9893
vn 0.0096 0.9883 -0.1525
vn -0.1857 -0.1318 -0.9737
vn -0.0286 0.9883 -0.1501
vn -0.4221 -0.1318 -0.8969
vn -0.0651 0.9883 -0.1383
vn -0.6319 -0.1318 -0.7638
vn -0.0974 0.9883 -0.1177
vn -0.8020 -0.1318 -0.5827
vn -0.1236 0.9883 -0.0898
vn -0.9217 -0.1318 -0.3649
vn -0.1421 0.9883 -0.0563
vn -0.9835 -0.1318 -0.1242
vn -0.1516 0.9883 -0.0192
vn -0.9835 -0.1318 0.1242
vn -0.1516 0.9883 0.0192
vn -0.9217 -0.1318 0.3649
vn -0.1421 0.9883 0.0563
vn -0.8020 -0.1318 0.5827
vn -0.1236 0.9883 0.0898
vn -0.6319 -0.1318 0.7638
vn -0.0974 0.9883 0.1177
vn -0.4221 -0.1318 0.8969
vn -0.0651 0.9883 0.1383
vn -0.1857 -0.1318 0.9737
vn -0.0286 0.9883 0.1501
vn 0.0622 -0.1318 0.9893
vn 0.0096 0.9883 0.1525
vn 0.3063 -0.1318 0.9428
vn 0.0472 0.9883 0.1453
vn 0.5312 -0.1318 0.8370
vn 0.0819 0.9883 0.1290
vn 0.7226 -0.1318 0.6786
vn 0.1114 0.9883 0.1046
vn 0.8687 -0.1318 0.4776
vn 0.1339 0.9883 0.0736
vn 0.9601 -0.1318 0.2465
vn 0.1480 0.9883 0.0380
# 50 vertex normals

vt 0.9995 0.5000 0.0005
vt 0.9837 0.6245 0.0005
vt 0.8176 0.5819 0.9995
vt 0.8280 0.5000 0.9995
vt 0.9375 0.7411 0.0005
vt 0.7872 0.6586 0.9995
vt 0.8636 0.8426 0.0005
vt 0.7385 0.7254 0.9995
vt 0.7667 0.9226 0.0005
vt 0.6748 0.7780 0.9995
vt 0.6530 0.9760 0.0005
vt 0.6000 0.8132 0.9995
vt 0.5295 0.9995 0.0005
vt 0.5187 0.8287 0.9995
vt 0.4041 0.9916 0.0005
vt 0.4362 0.8235 0.9995
vt 0.2845 0.9529 0.0005
vt 0.3575 0.7980 0.9995
vt 0.1784 0.8856 0.0005
vt 0.2877 0.7537 0.9995
vt 0.0923 0.7942 0.0005
vt 0.2311 0.6936 0.9995
vt 0.0318 0.6842 0.0005
vt 0.1912 0.6212 0.9995
vt 0.0005 0.5627 0.0005
vt 0.1707 0.5413 0.9995
vt 0.0005 0.4373 0.0005
vt 0.1707 0.4587 0.9995
vt 0.0318 0.3158 0.0005
vt 0.1912 0.3788 0.9995
vt 0.0923 0.2058 0.0005
vt 0.2311 0.3064 0.9995
vt 0.1784 0.1144 0.0005
vt 0.2877 0.2463 0.9995
vt 0.2845 0.0471 0.0005
vt 0.3575 0.2020 0.9995
vt 0.4041 0.0084 0.0005
vt 0.4362 0.1765 0.9995
vt 0.5295 0.0005 0.0005
vt 0.5187 0.1713 0.9995
vt 0.6530 0.0240 0.0005
vt 0.6000 0.1868 0.9995
vt 0.7667 0.0774 0.0005
vt 0.6748 0.2220 0.9995
vt 0.8636 0.1574 0.0005
vt 0.7385 0.2746 0.9995
vt 0.9375 0.2589 0.0005
vt 0.7872 0.3414 0.9995
vt 0.9837 0.3755 0.0005
vt 0.8176 0.4181 0.9995
# 50 texture coords

g Cylinder001
usemtl Material__26
s 1
f 1/1/1 2/2/2 3/3/3 4/4/4 
f 2/2/2 5/5/5 6/6/6 3/3/3 
f 5/5/5 7/7/7 8/8/8 6/6/6 
f 7/7/7 9/9/9 10/10/10 8/8/8 
f 9/9/9 11/11/11 12/12/12 10/10/10 
f 11/11/11 13/13/13 14/14/14 12/12/12 
f 13/13/13 15/15/15 16/16/16 14/14/14 
f 15/15/15 17/17/17 18/18/18 16/16/16 
f 17/17/17 19/19/19 20/20/20 18/18/18 
f 19/19/19 21/21/21 22/22/22 20/20/20 
f 21/21/21 23/23/23 24/24/24 22/22/22 
f 23/23/23 25/25/25 26/26/26 24/24/24 
f 25/25/25 27/27/27 28/28/28 26/26/26 
f 27/27/27 29/29/29 30/30/30 28/28/28 
f 29/29/29 31/31/31 32/32/32 30/30/30 
f 31/31/31 33/33/33 34/34/34 32/32/32 
f 33/33/33 35/35/35 36/36/36 34/34/34 
f 35/35/35 37/37/37 38/38/38 36/36/36 
f 37/37/37 39/39/39 40/40/40 38/38/38 
f 39/39/39 41/41/41 42/42/42 40/40/40 
f 41/41/41 43/43/43 44/44/44 42/42/42 
f 43/43/43 45/45/45 46/46/46 44/44/44 
f 45/45/45 47/47/47 48/48/48 46/46/46 
f 47/47/47 49/49/49 50/50/50 48/48/48 
f 49/49/49 1/1/1 4/4/4 50/50/50 
f 47/47/47 45/45/45 43/43/43 39/39/39 
f 43/43/43 41/41/41 39/39/39 
f 39/39/39 37/37/37 35/35/35 31/31/31 
f 35/35/35 33/33/33 31/31/31 
f 47/47/47 39/39/39 31/31/31 15/15/15 
f 31/31/31 29/29/29 27/27/27 23/23/23 
f 27/27/27 25/25/25 23/23/23 
f 23/23/23 21/21/21 19/19/19 15/15/15 
f 19/19/19 17/17/17 15/15/15 
f 31/31/31 23/23/23 15/15/15 
f 15/15/15 13/13/13 11/11/11 7/7/7 
f 11/11/11 9/9/9 7/7/7 
f 47/47/47 15/15/15 7/7/7 2/2/2 
f 7/7/7 5/5/5 2/2/2 
f 47/47/47 2/2/2 1/1/1 49/49/49 
f 3/3/3 6/6/6 8/8/8 12/12/12 
f 8/8/8 10/10/10 12/12/12 
f 12/12/12 14/14/14 16/16/16 20/20/20 
f 16/16/16 18/18/18 20/20/20 
f 3/3/3 12/12/12 20/20/20 36/36/36 
f 20/20/20 22/22/22 24/24/24 28/28/28 
f 24/24/24 26/26/26 28/28/28 
f 28/28/28 30/30/30 32/32/32 36/36/36 
f 32/32/32 34/34/34 36/36/36 
f 20/20/20 28/28/28 36/36/36 
f 36/36/36 38/38/38 40/40/40 44/44/44 
f 40/40/40 42/42/42 44/44/44 
f 3/3/3 36/36/36 44/44/44 48/48/48 
f 44/44/44 46/46/46 48/48/48 
f 3/3/3 48/48/48 50/50/50 4/4/4 
# 41 polygons - 14 triangles

