# 3ds Max Wavefront OBJ Exporter v0.97b - (c)2007 guruware
# 创建的文件:29.03.2017 23:53:49

mtllib bgz.mtl

#
# object bgz
#

v  -0.3460 0.7290 0.8518
v  -0.3460 0.7290 -0.8518
v  0.3460 0.7290 -0.8518
v  0.3460 0.7290 0.8518
v  -0.3460 0.7621 0.8518
v  0.3460 0.7621 0.8518
v  0.3460 0.7621 -0.8518
v  -0.3460 0.7621 -0.8518
v  0.3106 0.7290 -0.7195
v  -0.3342 0.7290 -0.7195
v  -0.3342 0.0000 -0.7195
v  0.3106 0.0000 -0.7195
v  0.3106 0.7290 -0.7848
v  0.3106 0.0000 -0.7848
v  -0.3342 0.7290 -0.7848
v  -0.3342 0.0000 -0.7848
v  0.3106 0.7290 -0.2520
v  -0.2452 0.7290 -0.2520
v  -0.2452 0.0000 -0.2520
v  0.3106 0.0000 -0.2520
v  -0.2452 0.7290 0.7273
v  -0.2452 0.0000 0.7273
v  -0.3105 0.7290 0.7273
v  -0.3105 0.7290 -0.7195
v  -0.3105 0.0000 -0.7195
v  -0.3105 0.0000 0.7273
v  0.3346 0.6609 -0.4355
v  0.3346 0.6609 -0.5331
v  0.3346 0.6681 -0.5331
v  0.3346 0.6681 -0.4355
v  0.3103 0.6609 -0.4307
v  0.3314 0.6609 -0.4307
v  0.3314 0.6681 -0.4307
v  0.3103 0.6681 -0.4307
v  0.3103 0.6681 -0.5379
v  0.3314 0.6681 -0.5379
v  0.3314 0.6609 -0.5379
v  0.3103 0.6609 -0.5379
v  0.3309 0.6681 -0.5297
v  0.3309 0.6681 -0.4388
v  0.3309 0.6609 -0.4388
v  0.3309 0.6609 -0.5297
v  0.3276 0.6681 -0.4341
v  0.3087 0.6681 -0.4341
v  0.3087 0.6609 -0.4341
v  0.3276 0.6609 -0.4341
v  0.3276 0.6609 -0.5344
v  0.3087 0.6609 -0.5344
v  0.3087 0.6681 -0.5344
v  0.3276 0.6681 -0.5344
v  0.3106 0.7290 0.7925
v  -0.3342 0.7290 0.7925
v  -0.3342 0.0000 0.7925
v  0.3106 0.0000 0.7925
v  0.3106 0.7290 0.7273
v  0.3106 0.0000 0.7273
v  -0.3342 0.7290 0.7273
v  -0.3342 0.0000 0.7273
# 58 vertices

vn -0.0000 -1.0000 -0.0000
vn 0.0000 -1.0000 -0.0000
vn -0.0000 1.0000 0.0000
vn -0.0000 -0.0000 1.0000
vn -0.0000 0.0000 1.0000
vn 1.0000 -0.0000 0.0000
vn 1.0000 -0.0001 0.0000
vn 1.0000 0.0000 0.0000
vn 0.0000 -0.0000 -1.0000
vn 0.0000 0.0000 1.0000
vn 0.0000 -0.0000 1.0000
vn 0.0000 0.0000 -1.0000
vn -0.0000 -0.0000 -1.0000
vn -1.0000 0.0000 -0.0000
vn -1.0000 0.0000 0.0000
vn 1.0000 -0.0000 -0.0000
vn 1.0000 0.0000 -0.0000
vn 0.9553 0.0002 0.2955
vn 0.9555 0.0000 -0.2951
vn 0.9554 0.0000 0.2953
vn 0.4666 -0.0002 0.8845
vn 0.4671 -0.0004 0.8842
vn -0.0000 0.0001 -1.0000
vn 0.4669 0.0001 -0.8843
vn 0.0000 1.0000 0.0000
vn 0.0001 1.0000 0.0000
vn 0.0001 1.0000 -0.0000
vn -0.0000 -1.0000 0.0000
vn -0.0001 -1.0000 0.0000
vn -0.0000 1.0000 0.0001
vn -0.0000 -1.0000 0.0001
vn -0.0000 1.0000 -0.0000
vn -0.9117 0.0003 0.4108
vn -1.0000 -0.0005 -0.0000
vn -0.8189 -0.0002 0.5739
vn -0.8189 -0.0005 -0.5739
vn -0.9119 0.0001 -0.4105
vn -1.0000 -0.0001 -0.0000
vn -1.0000 -0.0000 -0.0000
# 39 vertex normals

vt 0.8401 0.0019 1.6614
vt 0.8401 0.4341 1.6614
vt 0.1591 0.4341 1.6614
vt 0.1591 0.0019 1.6614
vt 0.1591 0.0019 1.7243
vt 0.8401 0.0019 1.7243
vt 0.8401 0.4341 1.7243
vt 0.1591 0.4341 1.7243
vt 0.4885 0.4994 -0.4000
vt 0.0444 0.4994 -0.4000
vt 0.0444 0.4381 -0.4000
vt 0.4885 0.4381 -0.4000
vt 0.9995 0.4994 0.4793
vt 0.0004 0.4994 0.4793
vt 0.0004 0.4381 0.4793
vt 0.9995 0.4381 0.4793
vt 0.9554 0.4994 1.4000
vt 0.5114 0.4994 1.4000
vt 0.5114 0.4381 1.4000
vt 0.9554 0.4381 1.4000
vt 0.8547 0.9969 2.6660
vt 0.4294 0.9969 2.6660
vt 0.4294 0.5018 2.6660
vt 0.8547 0.5018 2.6660
vt 0.4281 0.9999 0.7500
vt 0.3795 0.9999 0.7500
vt 0.3795 0.5005 0.7500
vt 0.4281 0.5005 0.7500
vt 0.8557 0.9997 2.6660
vt 0.4292 0.9997 2.6660
vt 0.4292 0.5028 2.6660
vt 0.8557 0.5028 2.6660
vt 0.3798 0.9985 0.7500
vt 0.4281 0.9985 0.7500
vt 0.4281 0.5006 0.7500
vt 0.3798 0.5006 0.7500
vt 0.8570 0.9984 1.6005
vt 0.4593 0.9984 1.6006
vt 0.4593 0.5023 1.6006
vt 0.8570 0.5023 1.6005
vt 0.0003 0.9999 0.0000
vt 0.0003 0.5005 0.0000
vt 0.7710 0.4364 -0.2534
vt -0.2770 0.4364 -0.2534
vt -0.2770 0.0018 -0.2534
vt 0.7710 0.0018 -0.2534
vt 1.2791 0.4364 -0.3839
vt -0.2693 0.4364 -0.3839
vt -0.2693 0.0018 -0.3839
vt 1.2791 0.0018 -0.3839
vt 0.9407 0.5509 1.2391
vt 0.9407 0.9607 1.1111
vt 0.9145 0.9607 1.1111
vt 0.9145 0.5509 1.2391
vt 0.9145 0.8436 0.2918
vt 0.9145 0.7429 0.2918
vt 0.9407 0.7429 0.2918
vt 0.9407 0.8436 0.2918
vt 0.9145 0.8436 2.7082
vt 0.9145 0.7429 2.7082
vt 0.9407 0.7429 2.7082
vt 0.9407 0.8436 2.7082
vt 0.9772 0.9607 1.3974
vt 0.9628 0.9461 1.3974
vt 0.9623 0.5468 1.3974
vt 0.9772 0.5383 1.3974
vt 0.8741 0.5345 1.6026
vt 0.8905 0.5510 1.6026
vt 0.8923 0.9461 1.6026
vt 0.8779 0.9607 1.6026
vt 0.9683 0.5137 1.3974
vt 0.9520 0.5306 1.3974
vt 0.8758 0.5283 1.3974
vt 0.8839 0.5175 1.3974
vt 0.9703 0.5152 1.6026
vt 0.9772 0.5325 1.6026
vt 0.9061 0.5260 1.6026
vt 0.8905 0.5175 1.6026
vt 0.8905 0.9815 1.6026
vt 0.9050 0.9665 1.6026
vt 0.9772 0.9665 1.6026
vt 0.9712 0.9815 1.6026
vt 0.8839 0.9815 1.3974
vt 0.8779 0.9665 1.3974
vt 0.9501 0.9665 1.3974
vt 0.9646 0.9815 1.3974
vt 0.9406 0.5308 1.6367
vt 0.9406 0.5458 1.6833
vt 0.9145 0.5458 1.6834
vt 0.9145 0.5308 1.6367
vt 0.9145 0.7610 2.6141
vt 0.9407 0.7610 2.6141
vt 0.9407 0.8511 2.6141
vt 0.9145 0.8511 2.6141
vt 0.9145 0.5529 1.2242
vt 0.9407 0.5529 1.2242
vt 0.9407 0.9461 1.2242
vt 0.9145 0.9461 1.2242
vt 0.9145 0.9815 1.2097
vt 0.9407 0.9815 1.2097
vt 0.9406 0.5427 1.4656
vt 0.9145 0.5427 1.4656
vt 0.9625 0.5140 1.3974
vt 0.9810 0.5345 1.3974
vt 0.8796 0.5344 1.6026
vt 0.8868 0.5137 1.6026
vt 0.9145 0.9665 1.3234
vt 0.9407 0.9665 1.3234
vt 0.9145 0.5790 1.4825
vt 0.9145 0.5586 1.5817
vt 0.9407 0.5586 1.5817
vt 0.9407 0.5790 1.4825
vt 0.9407 0.8511 0.3859
vt 0.9145 0.8511 0.3859
vt 0.9145 0.7610 0.3859
vt 0.9407 0.7610 0.3859
vt 0.9407 0.9665 1.8888
vt 0.9407 0.9815 1.8422
vt 0.9145 0.9815 1.8422
vt 0.9145 0.9665 1.8888
vt 0.0004 0.4381 -0.3207
vt 0.9995 0.4381 -0.3207
vt 0.9995 0.4994 -0.3207
vt 0.0004 0.4994 -0.3207
vt 0.4283 0.9981 0.7500
vt 0.3799 0.9981 0.7500
vt 0.3799 0.5002 0.7500
vt 0.4283 0.5002 0.7500
vt 0.8570 0.9984 2.6660
vt 0.4292 0.9984 2.6660
vt 0.4292 0.5023 2.6660
vt 0.8570 0.5023 2.6660
vt 0.3856 0.9981 0.7500
vt 0.3856 0.5002 0.7500
# 134 texture coords

g bgz
usemtl Material__23
s 2
f 1/1/1 2/2/2 3/3/2 4/4/1 
s 4
f 5/5/3 6/6/3 7/7/3 8/8/3 
s 8
f 6/9/4 5/10/4 1/11/4 4/12/5 
s 16
f 7/13/6 6/14/7 4/15/7 3/16/8 
s 32
f 8/17/9 7/18/9 3/19/9 2/20/9 
s 8
f 9/21/10 10/22/5 11/23/10 12/24/11 
s 16
f 13/25/6 9/26/6 12/27/6 14/28/6 
s 32
f 15/29/9 13/30/12 14/31/13 16/32/13 
s 64
f 10/33/14 15/34/14 16/35/14 11/36/15 
s 8
f 17/37/5 18/38/5 19/39/5 20/40/5 
s 16
f 9/26/16 17/41/16 20/42/16 12/27/17 
s 8
f 18/43/17 21/44/16 22/45/17 19/46/8 
s 32
f 23/47/15 24/48/15 25/49/15 26/50/15 
s 1
f 27/51/18 28/52/19 29/53/19 30/54/20 
f 31/55/4 32/56/21 33/57/22 34/58/5 
f 35/59/23 36/60/24 37/61/24 38/62/23 
s 2
f 29/63/25 39/64/25 40/65/26 30/66/27 
f 27/67/1 41/68/28 42/69/29 28/70/29 
f 33/71/25 43/72/25 44/73/30 34/74/30 
f 31/75/2 45/76/2 46/77/1 32/78/1 
f 37/79/28 47/80/31 48/81/1 38/82/1 
f 35/83/3 49/84/3 50/85/32 36/86/32 
s off
f 34/87/33 44/88/33 45/89/33 31/90/33 
f 47/91/10 50/92/10 49/93/10 48/94/10 
f 41/95/34 40/96/34 39/97/34 42/98/34 
s 1
f 36/99/24 29/53/19 28/52/19 37/100/24 
f 32/101/21 27/51/18 30/54/20 33/102/22 
s 2
f 50/85/32 39/64/25 29/63/25 36/86/32 
f 33/103/25 30/104/27 40/65/26 43/72/25 
f 46/77/1 41/68/28 27/105/1 32/106/1 
f 37/79/28 28/70/29 42/69/29 47/80/31 
s off
f 47/107/35 42/98/35 39/97/35 50/108/35 
f 41/109/36 46/110/36 43/111/36 40/112/36 
f 45/113/23 44/114/23 43/115/23 46/116/23 
f 49/117/37 35/118/37 38/119/37 48/120/37 
s 64
f 2/121/38 1/122/14 5/123/39 8/124/38 
s 8
f 51/29/10 52/30/5 53/31/10 54/32/11 
s 16
f 55/125/6 51/126/6 54/127/6 56/128/6 
s 32
f 57/129/13 55/130/12 56/131/13 58/132/13 
s 64
f 52/133/14 57/125/14 58/128/14 53/134/15 
# 40 polygons

