# 3ds Max Wavefront OBJ Exporter v0.97b - (c)2007 guruware
# File Created: 20.03.2017 17:30:53

mtllib ups.mtl

#
# object ____UPS
#

v  300.0000 1800.0000 -400.0000
v  300.0000 1800.0000 400.0000
v  -300.0000 1800.0000 400.0000
v  -300.0000 1800.0000 -400.0000
v  300.0000 0.0000 -400.0000
v  300.0000 0.0000 400.0000
v  -300.0000 0.0000 400.0000
v  -300.0000 0.0000 -400.0000
# 8 vertices

vn 0.0000 1.0000 -0.0000
vn 1.0000 0.0000 -0.0000
vn 0.0000 0.0000 1.0000
vn -1.0000 0.0000 0.0000
vn -0.0000 0.0000 -1.0000
# 5 vertex normals

vt 0.8216 0.3066 0.0000
vt 0.6308 0.3066 0.0000
vt 0.6308 0.0522 0.0000
vt 0.8216 0.0522 0.0000
vt 0.0584 0.4974 0.0000
vt 0.0584 0.3066 0.0000
vt 0.6308 0.4974 0.0000
vt 0.0584 0.0522 0.0000
vt 0.0584 0.9426 0.0000
vt 0.0584 0.7518 0.0000
vt 0.6308 0.7518 0.0000
vt 0.6308 0.9426 0.0000
# 12 texture coords

g ____UPS
usemtl 01___Default0
s 4
f 3/3/1 2/2/1 1/1/1 
f 1/1/1 4/4/1 3/3/1 
s 8
f 2/2/2 6/6/2 5/5/2 
f 5/5/2 1/7/2 2/2/2 
s 16
f 3/3/3 7/8/3 6/6/3 
f 6/6/3 2/2/3 3/3/3 
s 32
f 4/11/4 8/10/4 7/9/4 
f 7/9/4 3/12/4 4/11/4 
s 64
f 1/7/5 5/5/5 8/10/5 
f 8/10/5 4/11/5 1/7/5 
# 10 faces

